<svg xmlns="http://www.w3.org/2000/svg" xmlns:xlink="http://www.w3.org/1999/xlink" width="500" zoomAndPan="magnify" viewBox="0 0 375 374.999991" height="500" preserveAspectRatio="xMidYMid meet" version="1.2"><defs><clipPath id="54f50a1151"><path d="M 136 23.65625 L 263 23.65625 L 263 45 L 136 45 Z M 136 23.65625 "/></clipPath><clipPath id="c1a11d1a32"><path d="M 30.449219 193 L 92 193 L 92 307 L 30.449219 307 Z M 30.449219 193 "/></clipPath><clipPath id="331bce468f"><path d="M 158 149 L 347.699219 149 L 347.699219 341.65625 L 158 341.65625 Z M 158 149 "/></clipPath></defs><g id="352533ce29"><g clip-rule="nonzero" clip-path="url(#54f50a1151)"><path style=" stroke:none;fill-rule:nonzero;fill:#ffffff;fill-opacity:1;" d="M 260.769531 44.363281 C 260.515625 44.363281 260.257812 44.304688 260.015625 44.179688 C 254.726562 41.457031 249.230469 39.011719 243.667969 36.921875 C 242.816406 36.601562 242.386719 35.648438 242.707031 34.796875 C 243.027344 33.941406 243.980469 33.511719 244.832031 33.832031 C 250.507812 35.96875 256.125 38.464844 261.527344 41.246094 C 262.335938 41.664062 262.652344 42.660156 262.238281 43.46875 C 261.945312 44.035156 261.367188 44.363281 260.769531 44.363281 Z M 137.878906 35.449219 C 137.191406 35.449219 136.550781 35.015625 136.316406 34.332031 C 136.023438 33.46875 136.480469 32.53125 137.34375 32.238281 C 143.082031 30.269531 149 28.617188 154.933594 27.328125 C 155.824219 27.132812 156.703125 27.699219 156.898438 28.589844 C 157.089844 29.480469 156.527344 30.355469 155.636719 30.550781 C 149.828125 31.816406 144.03125 33.433594 138.410156 35.359375 C 138.234375 35.417969 138.054688 35.449219 137.878906 35.449219 Z M 226.996094 31.648438 C 226.863281 31.648438 226.730469 31.632812 226.59375 31.601562 C 220.835938 30.164062 214.921875 29.050781 209.019531 28.285156 C 208.117188 28.171875 207.476562 27.34375 207.59375 26.441406 C 207.710938 25.535156 208.539062 24.898438 209.441406 25.015625 C 215.46875 25.796875 221.507812 26.933594 227.390625 28.398438 C 228.277344 28.617188 228.816406 29.515625 228.59375 30.398438 C 228.40625 31.148438 227.734375 31.648438 226.996094 31.648438 Z M 173.132812 27.769531 C 172.296875 27.769531 171.578125 27.136719 171.496094 26.285156 C 171.40625 25.378906 172.066406 24.570312 172.972656 24.480469 C 178.21875 23.960938 183.566406 23.695312 188.867188 23.695312 C 189.652344 23.695312 190.445312 23.699219 191.222656 23.710938 C 192.136719 23.726562 192.863281 24.476562 192.851562 25.386719 C 192.835938 26.296875 192.082031 27.023438 191.175781 27.011719 C 190.410156 27 189.632812 26.992188 188.867188 26.992188 C 183.675781 26.992188 178.4375 27.253906 173.300781 27.761719 C 173.246094 27.769531 173.1875 27.769531 173.132812 27.769531 Z M 173.132812 27.769531 "/></g><g clip-rule="nonzero" clip-path="url(#c1a11d1a32)"><path style=" stroke:none;fill-rule:nonzero;fill:#ffffff;fill-opacity:1;" d="M 89.585938 306.132812 C 89.21875 306.132812 88.847656 306.011719 88.542969 305.761719 C 83.839844 301.925781 79.308594 297.777344 75.070312 293.429688 C 74.4375 292.777344 74.449219 291.734375 75.101562 291.097656 C 75.753906 290.464844 76.796875 290.476562 77.433594 291.128906 C 81.582031 295.386719 86.023438 299.449219 90.628906 303.203125 C 91.332031 303.78125 91.4375 304.820312 90.863281 305.523438 C 90.539062 305.925781 90.0625 306.132812 89.585938 306.132812 Z M 64.402344 280.285156 C 63.910156 280.285156 63.421875 280.066406 63.09375 279.644531 C 59.382812 274.839844 55.910156 269.769531 52.773438 264.582031 C 52.300781 263.800781 52.554688 262.785156 53.332031 262.316406 C 54.113281 261.84375 55.125 262.09375 55.597656 262.875 C 58.667969 267.957031 62.066406 272.921875 65.707031 277.628906 C 66.261719 278.347656 66.128906 279.382812 65.410156 279.941406 C 65.109375 280.171875 64.753906 280.285156 64.402344 280.285156 Z M 45.75 249.394531 C 45.125 249.394531 44.527344 249.039062 44.25 248.429688 C 41.730469 242.90625 39.507812 237.179688 37.644531 231.40625 C 37.363281 230.539062 37.839844 229.609375 38.707031 229.328125 C 39.574219 229.050781 40.503906 229.527344 40.785156 230.390625 C 42.605469 236.042969 44.78125 241.652344 47.25 247.0625 C 47.628906 247.890625 47.261719 248.867188 46.433594 249.246094 C 46.210938 249.347656 45.980469 249.394531 45.75 249.394531 Z M 34.667969 215.058594 C 33.894531 215.058594 33.207031 214.515625 33.050781 213.730469 C 31.871094 207.789062 31.019531 201.703125 30.527344 195.644531 C 30.453125 194.738281 31.128906 193.941406 32.035156 193.867188 C 32.945312 193.792969 33.738281 194.46875 33.8125 195.375 C 34.296875 201.3125 35.128906 207.269531 36.285156 213.085938 C 36.464844 213.980469 35.882812 214.847656 34.992188 215.027344 C 34.882812 215.046875 34.773438 215.058594 34.667969 215.058594 Z M 34.667969 215.058594 "/></g><g clip-rule="nonzero" clip-path="url(#331bce468f)"><path style=" stroke:none;fill-rule:nonzero;fill:#ffffff;fill-opacity:1;" d="M 196.207031 341.269531 C 195.332031 341.269531 194.601562 340.582031 194.5625 339.695312 C 194.519531 338.785156 195.222656 338.015625 196.132812 337.972656 C 202.082031 337.699219 208.066406 337.082031 213.917969 336.132812 C 214.816406 335.988281 215.664062 336.597656 215.808594 337.5 C 215.953125 338.398438 215.34375 339.246094 214.445312 339.390625 C 208.46875 340.355469 202.359375 340.988281 196.285156 341.269531 C 196.257812 341.269531 196.234375 341.269531 196.207031 341.269531 Z M 178.136719 341.078125 C 178.101562 341.078125 178.0625 341.078125 178.023438 341.074219 C 171.957031 340.664062 165.859375 339.902344 159.902344 338.804688 C 159.007812 338.640625 158.414062 337.78125 158.578125 336.882812 C 158.746094 335.988281 159.605469 335.394531 160.5 335.558594 C 166.332031 336.636719 172.304688 337.382812 178.246094 337.785156 C 179.15625 337.84375 179.84375 338.632812 179.78125 339.539062 C 179.722656 340.410156 178.996094 341.078125 178.136719 341.078125 Z M 231.820312 335.5 C 231.101562 335.5 230.441406 335.027344 230.234375 334.300781 C 229.984375 333.421875 230.496094 332.511719 231.371094 332.261719 C 237.085938 330.644531 242.769531 328.671875 248.261719 326.398438 C 249.105469 326.050781 250.070312 326.453125 250.417969 327.292969 C 250.765625 328.136719 250.363281 329.101562 249.523438 329.449219 C 243.914062 331.769531 238.109375 333.78125 232.269531 335.4375 C 232.121094 335.480469 231.96875 335.5 231.820312 335.5 Z M 265.15625 321.722656 C 264.578125 321.722656 264.015625 321.417969 263.714844 320.875 C 263.273438 320.078125 263.558594 319.074219 264.355469 318.632812 C 269.542969 315.746094 274.621094 312.527344 279.453125 309.0625 C 280.191406 308.53125 281.222656 308.699219 281.753906 309.441406 C 282.285156 310.179688 282.113281 311.210938 281.375 311.742188 C 276.441406 315.28125 271.253906 318.570312 265.957031 321.515625 C 265.703125 321.65625 265.429688 321.722656 265.15625 321.722656 Z M 294.46875 300.699219 C 294.019531 300.699219 293.570312 300.515625 293.246094 300.15625 C 292.632812 299.480469 292.683594 298.4375 293.359375 297.828125 C 297.761719 293.832031 301.980469 289.542969 305.894531 285.074219 C 306.496094 284.390625 307.539062 284.320312 308.222656 284.921875 C 308.910156 285.523438 308.976562 286.566406 308.375 287.25 C 304.378906 291.8125 300.070312 296.191406 295.574219 300.269531 C 295.261719 300.554688 294.863281 300.699219 294.46875 300.699219 Z M 318.25 273.5625 C 317.929688 273.5625 317.601562 273.46875 317.316406 273.269531 C 316.566406 272.75 316.378906 271.722656 316.898438 270.972656 C 320.28125 266.082031 323.414062 260.945312 326.210938 255.707031 C 326.640625 254.902344 327.636719 254.597656 328.441406 255.027344 C 329.246094 255.457031 329.550781 256.457031 329.121094 257.257812 C 326.265625 262.609375 323.066406 267.855469 319.609375 272.851562 C 319.289062 273.3125 318.773438 273.5625 318.25 273.5625 Z M 335.242188 241.71875 C 335.039062 241.71875 334.835938 241.683594 334.636719 241.605469 C 333.789062 241.273438 333.375 240.316406 333.707031 239.46875 C 335.882812 233.933594 337.753906 228.214844 339.277344 222.46875 C 339.507812 221.589844 340.410156 221.0625 341.292969 221.296875 C 342.171875 221.527344 342.699219 222.433594 342.464844 223.3125 C 340.914062 229.183594 339 235.023438 336.777344 240.675781 C 336.519531 241.324219 335.898438 241.71875 335.242188 241.71875 Z M 344.476562 206.835938 C 344.398438 206.835938 344.320312 206.828125 344.238281 206.816406 C 343.339844 206.6875 342.710938 205.851562 342.84375 204.949219 C 343.6875 199.085938 344.203125 193.09375 344.375 187.136719 C 344.398438 186.242188 345.132812 185.535156 346.023438 185.535156 C 346.039062 185.535156 346.054688 185.535156 346.070312 185.535156 C 346.980469 185.5625 347.699219 186.320312 347.671875 187.230469 C 347.496094 193.3125 346.96875 199.433594 346.105469 205.421875 C 345.988281 206.242188 345.285156 206.835938 344.476562 206.835938 Z M 345.519531 170.765625 C 344.671875 170.765625 343.953125 170.117188 343.878906 169.257812 C 343.375 163.324219 342.523438 157.367188 341.347656 151.550781 C 341.167969 150.660156 341.746094 149.789062 342.636719 149.609375 C 343.53125 149.429688 344.402344 150.003906 344.582031 150.898438 C 345.78125 156.835938 346.652344 162.917969 347.164062 168.976562 C 347.242188 169.886719 346.570312 170.683594 345.660156 170.761719 C 345.613281 170.765625 345.566406 170.765625 345.519531 170.765625 Z M 345.519531 170.765625 "/></g><path style=" stroke:none;fill-rule:nonzero;fill:#7d1a1a;fill-opacity:1;" d="M 304.300781 182.566406 C 304.300781 184.457031 304.253906 186.34375 304.164062 188.230469 C 304.070312 190.117188 303.929688 192 303.746094 193.882812 C 303.5625 195.761719 303.328125 197.636719 303.054688 199.503906 C 302.777344 201.375 302.453125 203.234375 302.085938 205.085938 C 301.714844 206.941406 301.300781 208.78125 300.84375 210.617188 C 300.382812 212.449219 299.878906 214.269531 299.332031 216.074219 C 298.78125 217.882812 298.191406 219.675781 297.554688 221.457031 C 296.917969 223.234375 296.238281 224.996094 295.515625 226.742188 C 294.792969 228.488281 294.027344 230.214844 293.21875 231.921875 C 292.410156 233.628906 291.5625 235.316406 290.671875 236.984375 C 289.78125 238.648438 288.851562 240.292969 287.878906 241.914062 C 286.90625 243.53125 285.898438 245.128906 284.847656 246.699219 C 283.796875 248.269531 282.710938 249.8125 281.585938 251.332031 C 280.460938 252.847656 279.296875 254.339844 278.097656 255.796875 C 276.902344 257.257812 275.667969 258.6875 274.398438 260.089844 C 273.128906 261.488281 271.828125 262.855469 270.492188 264.191406 C 269.15625 265.527344 267.789062 266.832031 266.386719 268.097656 C 264.988281 269.367188 263.558594 270.601562 262.097656 271.800781 C 260.636719 273 259.148438 274.160156 257.632812 275.285156 C 256.113281 276.410156 254.570312 277.5 253 278.546875 C 251.429688 279.597656 249.832031 280.609375 248.210938 281.578125 C 246.59375 282.550781 244.949219 283.480469 243.28125 284.371094 C 241.617188 285.261719 239.929688 286.113281 238.222656 286.917969 C 236.515625 287.726562 234.789062 288.492188 233.042969 289.214844 C 231.296875 289.9375 229.535156 290.617188 227.757812 291.253906 C 225.976562 291.890625 224.183594 292.484375 222.375 293.03125 C 220.566406 293.578125 218.75 294.082031 216.914062 294.542969 C 215.082031 295 213.242188 295.414062 211.386719 295.785156 C 209.535156 296.152344 207.671875 296.476562 205.804688 296.753906 C 203.9375 297.03125 202.0625 297.261719 200.183594 297.445312 C 198.300781 297.632812 196.417969 297.769531 194.53125 297.863281 C 192.644531 297.957031 190.757812 298.003906 188.867188 298.003906 C 186.976562 298.003906 185.089844 297.957031 183.203125 297.863281 C 181.316406 297.769531 179.433594 297.632812 177.550781 297.445312 C 175.671875 297.261719 173.796875 297.03125 171.929688 296.753906 C 170.058594 296.476562 168.199219 296.152344 166.347656 295.785156 C 164.492188 295.414062 162.652344 295 160.820312 294.542969 C 158.984375 294.082031 157.164062 293.578125 155.359375 293.03125 C 153.550781 292.484375 151.757812 291.890625 149.976562 291.253906 C 148.199219 290.617188 146.4375 289.9375 144.691406 289.214844 C 142.945312 288.492188 141.21875 287.726562 139.511719 286.917969 C 137.804688 286.113281 136.117188 285.261719 134.453125 284.371094 C 132.785156 283.480469 131.140625 282.550781 129.523438 281.578125 C 127.902344 280.609375 126.304688 279.597656 124.734375 278.546875 C 123.164062 277.5 121.621094 276.410156 120.101562 275.285156 C 118.585938 274.160156 117.097656 273 115.636719 271.800781 C 114.175781 270.601562 112.746094 269.367188 111.34375 268.097656 C 109.945312 266.832031 108.578125 265.527344 107.242188 264.191406 C 105.90625 262.855469 104.605469 261.488281 103.335938 260.089844 C 102.066406 258.6875 100.832031 257.257812 99.632812 255.796875 C 98.4375 254.339844 97.273438 252.847656 96.148438 251.332031 C 95.023438 249.8125 93.9375 248.269531 92.886719 246.699219 C 91.835938 245.128906 90.828125 243.53125 89.855469 241.914062 C 88.882812 240.292969 87.953125 238.648438 87.0625 236.984375 C 86.171875 235.316406 85.324219 233.628906 84.515625 231.921875 C 83.707031 230.214844 82.941406 228.488281 82.21875 226.742188 C 81.496094 224.996094 80.816406 223.234375 80.179688 221.457031 C 79.542969 219.675781 78.949219 217.882812 78.402344 216.074219 C 77.855469 214.269531 77.351562 212.449219 76.890625 210.617188 C 76.433594 208.78125 76.019531 206.941406 75.648438 205.085938 C 75.28125 203.234375 74.957031 201.375 74.679688 199.503906 C 74.402344 197.636719 74.171875 195.761719 73.988281 193.882812 C 73.800781 192 73.664062 190.117188 73.570312 188.230469 C 73.476562 186.34375 73.433594 184.457031 73.433594 182.566406 C 73.433594 180.679688 73.476562 178.789062 73.570312 176.902344 C 73.664062 175.015625 73.800781 173.132812 73.988281 171.253906 C 74.171875 169.371094 74.402344 167.496094 74.679688 165.628906 C 74.957031 163.761719 75.28125 161.898438 75.648438 160.046875 C 76.019531 158.195312 76.433594 156.351562 76.890625 154.519531 C 77.351562 152.6875 77.855469 150.867188 78.402344 149.058594 C 78.949219 147.25 79.542969 145.457031 80.179688 143.679688 C 80.816406 141.898438 81.496094 140.136719 82.21875 138.390625 C 82.941406 136.648438 83.707031 134.921875 84.515625 133.210938 C 85.324219 131.503906 86.171875 129.816406 87.0625 128.152344 C 87.953125 126.484375 88.882812 124.84375 89.855469 123.222656 C 90.828125 121.601562 91.835938 120.003906 92.886719 118.433594 C 93.9375 116.863281 95.023438 115.320312 96.148438 113.800781 C 97.273438 112.285156 98.4375 110.796875 99.632812 109.335938 C 100.832031 107.875 102.066406 106.445312 103.335938 105.046875 C 104.605469 103.644531 105.90625 102.277344 107.242188 100.941406 C 108.578125 99.605469 109.945312 98.304688 111.34375 97.035156 C 112.746094 95.765625 114.175781 94.53125 115.636719 93.335938 C 117.097656 92.136719 118.585938 90.972656 120.101562 89.847656 C 121.621094 88.722656 123.164062 87.636719 124.734375 86.585938 C 126.304688 85.535156 127.902344 84.527344 129.523438 83.554688 C 131.140625 82.582031 132.785156 81.652344 134.453125 80.761719 C 136.117188 79.871094 137.804688 79.023438 139.511719 78.214844 C 141.21875 77.40625 142.945312 76.640625 144.691406 75.917969 C 146.4375 75.195312 148.199219 74.515625 149.976562 73.878906 C 151.757812 73.242188 153.550781 72.652344 155.359375 72.101562 C 157.164062 71.554688 158.984375 71.050781 160.820312 70.589844 C 162.652344 70.132812 164.492188 69.71875 166.347656 69.351562 C 168.199219 68.980469 170.058594 68.660156 171.929688 68.382812 C 173.796875 68.105469 175.671875 67.871094 177.550781 67.6875 C 179.433594 67.503906 181.316406 67.363281 183.203125 67.269531 C 185.089844 67.179688 186.976562 67.132812 188.867188 67.132812 C 190.757812 67.132812 192.644531 67.179688 194.53125 67.269531 C 196.417969 67.363281 198.300781 67.503906 200.183594 67.6875 C 202.0625 67.871094 203.9375 68.105469 205.804688 68.382812 C 207.671875 68.660156 209.535156 68.980469 211.386719 69.351562 C 213.242188 69.71875 215.082031 70.132812 216.914062 70.589844 C 218.75 71.050781 220.566406 71.554688 222.375 72.101562 C 224.183594 72.652344 225.976562 73.242188 227.757812 73.878906 C 229.535156 74.515625 231.296875 75.195312 233.042969 75.917969 C 234.789062 76.640625 236.515625 77.40625 238.222656 78.214844 C 239.929688 79.023438 241.617188 79.871094 243.28125 80.761719 C 244.949219 81.652344 246.59375 82.582031 248.210938 83.554688 C 249.832031 84.527344 251.429688 85.535156 253 86.585938 C 254.570312 87.636719 256.113281 88.722656 257.632812 89.847656 C 259.148438 90.972656 260.636719 92.136719 262.097656 93.335938 C 263.558594 94.53125 264.988281 95.765625 266.386719 97.035156 C 267.789062 98.304688 269.15625 99.605469 270.492188 100.941406 C 271.828125 102.277344 273.128906 103.644531 274.398438 105.046875 C 275.667969 106.445312 276.902344 107.875 278.101562 109.335938 C 279.296875 110.796875 280.460938 112.285156 281.585938 113.800781 C 282.710938 115.320312 283.796875 116.863281 284.847656 118.433594 C 285.898438 120.003906 286.90625 121.601562 287.878906 123.222656 C 288.851562 124.84375 289.78125 126.484375 290.671875 128.152344 C 291.5625 129.816406 292.410156 131.503906 293.21875 133.210938 C 294.027344 134.921875 294.792969 136.648438 295.515625 138.390625 C 296.238281 140.136719 296.917969 141.898438 297.554688 143.679688 C 298.191406 145.457031 298.78125 147.25 299.332031 149.058594 C 299.878906 150.867188 300.382812 152.6875 300.84375 154.519531 C 301.300781 156.351562 301.714844 158.195312 302.085938 160.046875 C 302.453125 161.898438 302.777344 163.761719 303.054688 165.628906 C 303.328125 167.496094 303.5625 169.371094 303.746094 171.253906 C 303.929688 173.132812 304.070312 175.015625 304.164062 176.902344 C 304.253906 178.789062 304.300781 180.679688 304.300781 182.566406 Z M 304.300781 182.566406 "/><path style=" stroke:none;fill-rule:nonzero;fill:#641b26;fill-opacity:1;" d="M 304.996094 50.800781 C 290.121094 50.800781 277.304688 59.484375 271.242188 72.039062 C 265.179688 59.484375 252.363281 50.800781 237.488281 50.800781 C 216.773438 50.800781 199.984375 67.589844 199.984375 88.304688 C 201.164062 151.242188 271.242188 188.246094 271.242188 188.246094 C 271.242188 188.246094 342.53125 153.671875 342.5 88.304688 C 342.5 67.589844 325.707031 50.800781 304.996094 50.800781 Z M 304.996094 50.800781 "/><path style=" stroke:none;fill-rule:nonzero;fill:#ffffff;fill-opacity:1;" d="M 271.242188 189.898438 C 270.976562 189.898438 270.710938 189.832031 270.472656 189.707031 C 270.289062 189.609375 265.9375 187.300781 259.351562 182.847656 C 253.285156 178.75 244.121094 171.988281 234.90625 163.0625 C 224.53125 153.007812 216.207031 142.308594 210.167969 131.265625 C 202.589844 117.402344 198.609375 102.960938 198.335938 88.335938 C 198.332031 88.324219 198.332031 88.316406 198.332031 88.304688 C 198.332031 83.019531 199.367188 77.890625 201.410156 73.0625 C 203.382812 68.402344 206.207031 64.214844 209.800781 60.617188 C 213.398438 57.023438 217.582031 54.199219 222.246094 52.226562 C 227.074219 50.1875 232.203125 49.152344 237.488281 49.152344 C 244.988281 49.152344 252.277344 51.285156 258.5625 55.324219 C 263.78125 58.679688 268.121094 63.207031 271.242188 68.535156 C 274.363281 63.207031 278.699219 58.679688 283.921875 55.324219 C 290.207031 51.285156 297.492188 49.152344 304.996094 49.152344 C 310.28125 49.152344 315.410156 50.1875 320.238281 52.226562 C 324.898438 54.199219 329.085938 57.023438 332.679688 60.617188 C 336.277344 64.214844 339.101562 68.402344 341.070312 73.0625 C 343.113281 77.890625 344.148438 83.019531 344.148438 88.304688 C 344.15625 103.488281 340.347656 118.285156 332.832031 132.277344 C 326.839844 143.433594 318.488281 154.105469 308.015625 163.988281 C 298.714844 172.761719 289.425781 179.285156 283.265625 183.214844 C 276.578125 187.480469 272.148438 189.640625 271.960938 189.730469 C 271.734375 189.84375 271.488281 189.898438 271.242188 189.898438 Z M 201.632812 88.289062 C 202.238281 120.199219 221.273438 145.242188 237.140625 160.632812 C 252.414062 175.449219 267.773438 184.425781 271.273438 186.382812 C 274.828125 184.542969 290.421875 176.070312 305.820312 161.523438 C 321.808594 146.417969 340.867188 121.449219 340.851562 88.304688 C 340.851562 68.535156 324.765625 52.449219 304.996094 52.449219 C 291.140625 52.449219 278.773438 60.230469 272.726562 72.757812 C 272.453125 73.328125 271.875 73.6875 271.242188 73.6875 C 270.609375 73.6875 270.03125 73.328125 269.757812 72.757812 C 263.707031 60.230469 251.34375 52.449219 237.488281 52.449219 C 217.722656 52.449219 201.640625 68.523438 201.632812 88.289062 Z M 201.632812 88.289062 "/><path style=" stroke:none;fill-rule:nonzero;fill:#ffffff;fill-opacity:1;" d="M 228.355469 119.378906 L 228.355469 136.972656 C 228.355469 139.402344 226.386719 141.371094 223.957031 141.371094 C 221.527344 141.371094 219.558594 139.402344 219.558594 136.972656 L 219.558594 113.878906 C 219.558594 107.808594 224.484375 102.882812 230.554688 102.882812 L 245.949219 102.882812 C 252.023438 102.882812 256.945312 107.808594 256.945312 113.878906 L 256.945312 136.972656 C 256.945312 139.402344 254.976562 141.371094 252.546875 141.371094 C 250.117188 141.371094 248.148438 139.402344 248.148438 136.972656 L 248.148438 119.378906 L 248.148438 172.234375 C 248.148438 172.234375 240.84375 166.9375 237.300781 163.074219 C 233.855469 160.507812 227.808594 153.257812 227.808594 153.257812 L 228.355469 135.871094 Z M 228.355469 119.378906 "/><path style=" stroke:none;fill-rule:nonzero;fill:#ffffff;fill-opacity:1;" d="M 248.148438 173.882812 C 247.808594 173.882812 247.46875 173.777344 247.179688 173.566406 C 246.878906 173.351562 239.835938 168.226562 236.191406 164.300781 C 232.617188 161.578125 226.792969 154.613281 226.542969 154.316406 C 226.28125 154.003906 226.148438 153.609375 226.160156 153.207031 L 226.5 142.460938 C 225.726562 142.820312 224.863281 143.019531 223.957031 143.019531 C 220.625 143.019531 217.910156 140.308594 217.910156 136.972656 L 217.910156 113.878906 C 217.910156 106.90625 223.582031 101.234375 230.554688 101.234375 L 245.949219 101.234375 C 252.921875 101.234375 258.597656 106.90625 258.597656 113.878906 L 258.597656 136.972656 C 258.597656 140.308594 255.882812 143.019531 252.546875 143.019531 C 251.558594 143.019531 250.625 142.78125 249.800781 142.359375 L 249.800781 172.234375 C 249.800781 172.851562 249.453125 173.421875 248.898438 173.703125 C 248.664062 173.824219 248.40625 173.882812 248.148438 173.882812 Z M 229.476562 152.679688 C 230.867188 154.3125 235.53125 159.699219 238.289062 161.75 C 238.371094 161.8125 238.449219 161.882812 238.519531 161.960938 C 240.597656 164.226562 244.09375 167.0625 246.5 168.921875 L 246.5 119.378906 C 246.5 118.46875 247.238281 117.730469 248.148438 117.730469 C 249.0625 117.730469 249.800781 118.46875 249.800781 119.378906 L 249.800781 136.972656 C 249.800781 138.488281 251.03125 139.722656 252.546875 139.722656 C 254.0625 139.722656 255.296875 138.488281 255.296875 136.972656 L 255.296875 113.878906 C 255.296875 108.726562 251.105469 104.535156 245.949219 104.535156 L 230.554688 104.535156 C 225.402344 104.535156 221.210938 108.726562 221.210938 113.878906 L 221.210938 136.972656 C 221.210938 138.488281 222.441406 139.722656 223.957031 139.722656 C 225.289062 139.722656 226.40625 138.769531 226.65625 137.507812 L 226.707031 135.847656 L 226.707031 119.378906 C 226.707031 118.46875 227.445312 117.730469 228.355469 117.730469 C 229.269531 117.730469 230.007812 118.46875 230.007812 119.378906 L 230.007812 135.863281 C 230.007812 135.867188 230.007812 135.875 230.007812 135.878906 L 230.007812 136.972656 C 230.007812 137.265625 229.984375 137.550781 229.945312 137.832031 Z M 229.476562 152.679688 "/><path style=" stroke:none;fill-rule:nonzero;fill:#ffffff;fill-opacity:1;" d="M 294.332031 119.378906 L 294.332031 136.972656 C 294.332031 139.402344 292.363281 141.371094 289.933594 141.371094 C 287.503906 141.371094 285.535156 139.402344 285.535156 136.972656 L 285.535156 113.878906 C 285.535156 107.808594 290.460938 102.882812 296.53125 102.882812 L 311.925781 102.882812 C 318 102.882812 322.921875 107.808594 322.921875 113.878906 L 322.921875 136.972656 C 322.921875 139.402344 320.953125 141.371094 318.523438 141.371094 C 316.097656 141.371094 314.125 139.402344 314.125 136.972656 L 314.125 119.378906 L 314.125 154.914062 C 314.125 154.914062 310.859375 159.113281 304.230469 165.234375 C 299.347656 170.039062 294.332031 172.878906 294.332031 172.878906 Z M 294.332031 119.378906 "/><path style=" stroke:none;fill-rule:nonzero;fill:#ffffff;fill-opacity:1;" d="M 294.332031 174.527344 C 294.046875 174.527344 293.757812 174.453125 293.503906 174.304688 C 292.996094 174.007812 292.683594 173.464844 292.683594 172.878906 L 292.683594 142.359375 C 291.859375 142.78125 290.925781 143.019531 289.933594 143.019531 C 286.601562 143.019531 283.886719 140.308594 283.886719 136.972656 L 283.886719 113.878906 C 283.886719 106.90625 289.558594 101.234375 296.53125 101.234375 L 311.925781 101.234375 C 318.898438 101.234375 324.574219 106.90625 324.574219 113.878906 L 324.574219 136.972656 C 324.574219 140.308594 321.859375 143.019531 318.523438 143.019531 C 317.535156 143.019531 316.601562 142.78125 315.777344 142.359375 L 315.777344 154.914062 C 315.777344 155.28125 315.652344 155.636719 315.429688 155.925781 C 315.292969 156.101562 312.007812 160.296875 305.367188 166.425781 C 300.394531 171.316406 295.359375 174.195312 295.144531 174.3125 C 294.894531 174.457031 294.613281 174.527344 294.332031 174.527344 Z M 295.984375 136.972656 L 295.984375 169.867188 C 297.832031 168.597656 300.484375 166.605469 303.074219 164.058594 C 303.085938 164.042969 303.097656 164.03125 303.109375 164.019531 C 308.351562 159.183594 311.480469 155.535156 312.476562 154.328125 L 312.476562 119.378906 C 312.476562 118.46875 313.214844 117.730469 314.125 117.730469 C 315.039062 117.730469 315.777344 118.46875 315.777344 119.378906 L 315.777344 136.972656 C 315.777344 138.488281 317.007812 139.722656 318.523438 139.722656 C 320.039062 139.722656 321.273438 138.488281 321.273438 136.972656 L 321.273438 113.878906 C 321.273438 108.726562 317.082031 104.535156 311.925781 104.535156 L 296.53125 104.535156 C 291.378906 104.535156 287.1875 108.726562 287.1875 113.878906 L 287.1875 136.972656 C 287.1875 138.488281 288.417969 139.722656 289.933594 139.722656 C 291.449219 139.722656 292.683594 138.488281 292.683594 136.972656 L 292.683594 119.378906 C 292.683594 118.46875 293.421875 117.730469 294.332031 117.730469 C 295.246094 117.730469 295.984375 118.46875 295.984375 119.378906 Z M 295.984375 136.972656 "/><path style=" stroke:none;fill-rule:nonzero;fill:#ffffff;fill-opacity:1;" d="M 282.238281 102.882812 C 282.238281 103.605469 282.167969 104.320312 282.027344 105.027344 C 281.886719 105.738281 281.675781 106.425781 281.402344 107.09375 C 281.125 107.757812 280.785156 108.394531 280.382812 108.992188 C 279.984375 109.59375 279.527344 110.148438 279.015625 110.660156 C 278.507812 111.167969 277.949219 111.625 277.351562 112.027344 C 276.75 112.429688 276.117188 112.765625 275.449219 113.042969 C 274.78125 113.320312 274.09375 113.527344 273.386719 113.667969 C 272.679688 113.808594 271.964844 113.878906 271.242188 113.878906 C 270.519531 113.878906 269.804688 113.808594 269.097656 113.667969 C 268.386719 113.527344 267.699219 113.320312 267.035156 113.042969 C 266.367188 112.765625 265.734375 112.429688 265.132812 112.027344 C 264.53125 111.625 263.976562 111.167969 263.464844 110.660156 C 262.957031 110.148438 262.5 109.59375 262.097656 108.992188 C 261.699219 108.394531 261.359375 107.757812 261.082031 107.09375 C 260.804688 106.425781 260.597656 105.738281 260.457031 105.027344 C 260.316406 104.320312 260.246094 103.605469 260.246094 102.882812 C 260.246094 102.160156 260.316406 101.445312 260.457031 100.738281 C 260.597656 100.03125 260.804688 99.34375 261.082031 98.675781 C 261.359375 98.007812 261.699219 97.375 262.097656 96.773438 C 262.5 96.175781 262.957031 95.617188 263.464844 95.109375 C 263.976562 94.597656 264.53125 94.140625 265.132812 93.742188 C 265.734375 93.339844 266.367188 93 267.035156 92.726562 C 267.699219 92.449219 268.386719 92.238281 269.097656 92.097656 C 269.804688 91.957031 270.519531 91.886719 271.242188 91.886719 C 271.964844 91.886719 272.679688 91.957031 273.386719 92.097656 C 274.09375 92.238281 274.78125 92.449219 275.449219 92.726562 C 276.117188 93 276.75 93.339844 277.351562 93.742188 C 277.949219 94.140625 278.507812 94.597656 279.015625 95.109375 C 279.527344 95.617188 279.984375 96.175781 280.382812 96.773438 C 280.785156 97.375 281.125 98.007812 281.402344 98.675781 C 281.675781 99.34375 281.886719 100.03125 282.027344 100.738281 C 282.167969 101.445312 282.238281 102.160156 282.238281 102.882812 Z M 282.238281 102.882812 "/><path style=" stroke:none;fill-rule:nonzero;fill:#ffffff;fill-opacity:1;" d="M 271.242188 115.53125 C 264.269531 115.53125 258.597656 109.855469 258.597656 102.882812 C 258.597656 95.910156 264.269531 90.238281 271.242188 90.238281 C 278.214844 90.238281 283.886719 95.910156 283.886719 102.882812 C 283.886719 109.855469 278.214844 115.53125 271.242188 115.53125 Z M 271.242188 93.535156 C 266.085938 93.535156 261.894531 97.730469 261.894531 102.882812 C 261.894531 108.039062 266.085938 112.230469 271.242188 112.230469 C 276.394531 112.230469 280.589844 108.039062 280.589844 102.882812 C 280.589844 97.730469 276.394531 93.535156 271.242188 93.535156 Z M 271.242188 93.535156 "/><path style=" stroke:none;fill-rule:nonzero;fill:#ffffff;fill-opacity:1;" d="M 261.34375 139.171875 L 261.34375 156.765625 C 261.34375 159.195312 259.375 161.164062 256.945312 161.164062 C 254.515625 161.164062 252.546875 159.195312 252.546875 156.765625 L 252.546875 133.671875 C 252.546875 127.601562 257.472656 122.675781 263.542969 122.675781 L 278.9375 122.675781 C 285.011719 122.675781 289.933594 127.601562 289.933594 133.671875 L 289.933594 156.765625 C 289.933594 159.195312 287.964844 161.164062 285.535156 161.164062 C 283.105469 161.164062 281.136719 159.195312 281.136719 156.765625 L 281.136719 139.171875 L 281.136719 182.609375 L 271.242188 188.246094 L 261.34375 182.199219 Z M 261.34375 139.171875 "/><path style=" stroke:none;fill-rule:nonzero;fill:#ffffff;fill-opacity:1;" d="M 271.242188 189.898438 C 270.941406 189.898438 270.644531 189.816406 270.382812 189.65625 L 260.484375 183.609375 C 259.996094 183.308594 259.695312 182.773438 259.695312 182.199219 L 259.695312 162.152344 C 258.871094 162.574219 257.9375 162.8125 256.945312 162.8125 C 253.613281 162.8125 250.898438 160.101562 250.898438 156.765625 L 250.898438 133.671875 C 250.898438 126.699219 256.570312 121.027344 263.542969 121.027344 L 278.9375 121.027344 C 285.910156 121.027344 291.585938 126.699219 291.585938 133.671875 L 291.585938 156.765625 C 291.585938 160.101562 288.871094 162.8125 285.535156 162.8125 C 284.546875 162.8125 283.613281 162.574219 282.789062 162.152344 L 282.789062 182.609375 C 282.789062 183.199219 282.46875 183.746094 281.953125 184.042969 L 272.058594 189.679688 C 271.804688 189.824219 271.523438 189.898438 271.242188 189.898438 Z M 262.996094 181.273438 L 271.269531 186.332031 L 279.488281 181.648438 L 279.488281 139.171875 C 279.488281 138.261719 280.226562 137.523438 281.136719 137.523438 C 282.050781 137.523438 282.789062 138.261719 282.789062 139.171875 L 282.789062 156.765625 C 282.789062 158.28125 284.019531 159.515625 285.535156 159.515625 C 287.050781 159.515625 288.285156 158.28125 288.285156 156.765625 L 288.285156 133.671875 C 288.285156 128.519531 284.09375 124.328125 278.9375 124.328125 L 263.542969 124.328125 C 258.390625 124.328125 254.199219 128.519531 254.199219 133.671875 L 254.199219 156.765625 C 254.199219 158.28125 255.429688 159.515625 256.945312 159.515625 C 258.460938 159.515625 259.695312 158.28125 259.695312 156.765625 L 259.695312 139.171875 C 259.695312 138.261719 260.433594 137.523438 261.34375 137.523438 C 262.253906 137.523438 262.996094 138.261719 262.996094 139.171875 Z M 262.996094 181.273438 "/><path style=" stroke:none;fill-rule:nonzero;fill:#ffffff;fill-opacity:1;" d="M 271.242188 188.941406 C 270.332031 188.941406 269.59375 188.203125 269.59375 187.292969 L 269.59375 158.277344 C 269.59375 157.367188 270.332031 156.628906 271.242188 156.628906 C 272.152344 156.628906 272.890625 157.367188 272.890625 158.277344 L 272.890625 187.292969 C 272.890625 188.203125 272.152344 188.941406 271.242188 188.941406 Z M 271.242188 188.941406 "/><path style=" stroke:none;fill-rule:nonzero;fill:#ffffff;fill-opacity:1;" d="M 315.226562 83.089844 C 315.226562 83.8125 315.15625 84.527344 315.015625 85.234375 C 314.875 85.945312 314.664062 86.632812 314.390625 87.296875 C 314.113281 87.964844 313.773438 88.597656 313.371094 89.199219 C 312.972656 89.800781 312.515625 90.355469 312.003906 90.867188 C 311.496094 91.375 310.941406 91.832031 310.339844 92.234375 C 309.738281 92.636719 309.105469 92.972656 308.4375 93.25 C 307.769531 93.527344 307.082031 93.734375 306.375 93.875 C 305.667969 94.015625 304.953125 94.085938 304.230469 94.085938 C 303.507812 94.085938 302.792969 94.015625 302.085938 93.875 C 301.375 93.734375 300.6875 93.527344 300.023438 93.25 C 299.355469 92.972656 298.722656 92.636719 298.121094 92.234375 C 297.519531 91.832031 296.964844 91.375 296.453125 90.867188 C 295.945312 90.355469 295.488281 89.800781 295.085938 89.199219 C 294.6875 88.597656 294.347656 87.964844 294.070312 87.296875 C 293.792969 86.632812 293.585938 85.945312 293.445312 85.234375 C 293.304688 84.527344 293.234375 83.8125 293.234375 83.089844 C 293.234375 82.367188 293.304688 81.652344 293.445312 80.945312 C 293.585938 80.238281 293.792969 79.550781 294.070312 78.882812 C 294.347656 78.214844 294.6875 77.582031 295.085938 76.980469 C 295.488281 76.382812 295.945312 75.824219 296.453125 75.316406 C 296.964844 74.804688 297.519531 74.347656 298.121094 73.949219 C 298.722656 73.546875 299.355469 73.207031 300.023438 72.929688 C 300.6875 72.65625 301.375 72.445312 302.085938 72.304688 C 302.792969 72.164062 303.507812 72.09375 304.230469 72.09375 C 304.953125 72.09375 305.667969 72.164062 306.375 72.304688 C 307.082031 72.445312 307.769531 72.65625 308.4375 72.929688 C 309.105469 73.207031 309.738281 73.546875 310.339844 73.949219 C 310.941406 74.347656 311.496094 74.804688 312.003906 75.316406 C 312.515625 75.824219 312.972656 76.382812 313.371094 76.980469 C 313.773438 77.582031 314.113281 78.214844 314.390625 78.882812 C 314.664062 79.550781 314.875 80.238281 315.015625 80.945312 C 315.15625 81.652344 315.226562 82.367188 315.226562 83.089844 Z M 315.226562 83.089844 "/><path style=" stroke:none;fill-rule:nonzero;fill:#ffffff;fill-opacity:1;" d="M 304.230469 95.738281 C 297.257812 95.738281 291.585938 90.0625 291.585938 83.089844 C 291.585938 76.117188 297.257812 70.445312 304.230469 70.445312 C 311.203125 70.445312 316.875 76.117188 316.875 83.089844 C 316.875 90.0625 311.203125 95.738281 304.230469 95.738281 Z M 304.230469 73.742188 C 299.078125 73.742188 294.882812 77.9375 294.882812 83.089844 C 294.882812 88.246094 299.078125 92.4375 304.230469 92.4375 C 309.382812 92.4375 313.578125 88.246094 313.578125 83.089844 C 313.578125 77.9375 309.382812 73.742188 304.230469 73.742188 Z M 304.230469 73.742188 "/><path style=" stroke:none;fill-rule:nonzero;fill:#ffffff;fill-opacity:1;" d="M 304.230469 165.921875 C 303.320312 165.921875 302.582031 165.183594 302.582031 164.273438 L 302.582031 138.484375 C 302.582031 137.574219 303.320312 136.835938 304.230469 136.835938 C 305.140625 136.835938 305.878906 137.574219 305.878906 138.484375 L 305.878906 164.273438 C 305.878906 165.183594 305.140625 165.921875 304.230469 165.921875 Z M 304.230469 165.921875 "/><path style=" stroke:none;fill-rule:nonzero;fill:#ffffff;fill-opacity:1;" d="M 249.785156 83.089844 C 249.785156 83.8125 249.714844 84.527344 249.574219 85.234375 C 249.433594 85.945312 249.222656 86.632812 248.945312 87.296875 C 248.671875 87.964844 248.332031 88.597656 247.929688 89.199219 C 247.53125 89.800781 247.074219 90.355469 246.5625 90.867188 C 246.054688 91.375 245.496094 91.832031 244.898438 92.234375 C 244.296875 92.636719 243.664062 92.972656 242.996094 93.25 C 242.328125 93.527344 241.640625 93.734375 240.933594 93.875 C 240.226562 94.015625 239.511719 94.085938 238.789062 94.085938 C 238.066406 94.085938 237.351562 94.015625 236.644531 93.875 C 235.933594 93.734375 235.246094 93.527344 234.578125 93.25 C 233.914062 92.972656 233.277344 92.636719 232.679688 92.234375 C 232.078125 91.832031 231.523438 91.375 231.011719 90.867188 C 230.503906 90.355469 230.046875 89.800781 229.644531 89.199219 C 229.242188 88.597656 228.90625 87.964844 228.628906 87.296875 C 228.351562 86.632812 228.144531 85.945312 228.003906 85.234375 C 227.863281 84.527344 227.792969 83.8125 227.792969 83.089844 C 227.792969 82.367188 227.863281 81.652344 228.003906 80.945312 C 228.144531 80.238281 228.351562 79.550781 228.628906 78.882812 C 228.90625 78.214844 229.242188 77.582031 229.644531 76.980469 C 230.046875 76.382812 230.503906 75.824219 231.011719 75.316406 C 231.523438 74.804688 232.078125 74.347656 232.679688 73.949219 C 233.277344 73.546875 233.914062 73.207031 234.578125 72.929688 C 235.246094 72.65625 235.933594 72.445312 236.644531 72.304688 C 237.351562 72.164062 238.066406 72.09375 238.789062 72.09375 C 239.511719 72.09375 240.226562 72.164062 240.933594 72.304688 C 241.640625 72.445312 242.328125 72.65625 242.996094 72.929688 C 243.664062 73.207031 244.296875 73.546875 244.898438 73.949219 C 245.496094 74.347656 246.054688 74.804688 246.5625 75.316406 C 247.074219 75.824219 247.53125 76.382812 247.929688 76.980469 C 248.332031 77.582031 248.671875 78.214844 248.945312 78.882812 C 249.222656 79.550781 249.433594 80.238281 249.574219 80.945312 C 249.714844 81.652344 249.785156 82.367188 249.785156 83.089844 Z M 249.785156 83.089844 "/><path style=" stroke:none;fill-rule:nonzero;fill:#ffffff;fill-opacity:1;" d="M 238.789062 95.738281 C 231.816406 95.738281 226.140625 90.0625 226.140625 83.089844 C 226.140625 76.117188 231.816406 70.445312 238.789062 70.445312 C 245.761719 70.445312 251.433594 76.117188 251.433594 83.089844 C 251.433594 90.0625 245.761719 95.738281 238.789062 95.738281 Z M 238.789062 73.742188 C 233.632812 73.742188 229.441406 77.9375 229.441406 83.089844 C 229.441406 88.246094 233.632812 92.4375 238.789062 92.4375 C 243.941406 92.4375 248.136719 88.246094 248.136719 83.089844 C 248.136719 77.9375 243.941406 73.742188 238.789062 73.742188 Z M 238.789062 73.742188 "/><path style=" stroke:none;fill-rule:nonzero;fill:#ffffff;fill-opacity:1;" d="M 238.253906 165.617188 C 237.34375 165.617188 236.605469 164.878906 236.605469 163.96875 L 236.605469 138.484375 C 236.605469 137.574219 237.34375 136.835938 238.253906 136.835938 C 239.164062 136.835938 239.902344 137.574219 239.902344 138.484375 L 239.902344 163.96875 C 239.902344 164.878906 239.164062 165.617188 238.253906 165.617188 Z M 238.253906 165.617188 "/><path style=" stroke:none;fill-rule:nonzero;fill:#641b26;fill-opacity:1;" d="M 132.886719 83.535156 C 123.605469 83.535156 115.605469 89.046875 111.824219 97.019531 C 108.039062 89.046875 100.042969 83.535156 90.757812 83.535156 C 77.832031 83.535156 67.351562 94.195312 67.351562 107.34375 C 67.351562 135.910156 111.824219 162.101562 111.824219 162.101562 C 111.824219 162.101562 156.292969 135.910156 156.292969 107.34375 C 156.292969 94.195312 145.816406 83.535156 132.886719 83.535156 Z M 132.886719 83.535156 "/><path style=" stroke:none;fill-rule:nonzero;fill:#ffffff;fill-opacity:1;" d="M 111.824219 163.75 C 111.535156 163.75 111.246094 163.671875 110.988281 163.523438 C 110.527344 163.25 99.59375 156.773438 88.476562 146.65625 C 81.917969 140.683594 76.679688 134.691406 72.914062 128.84375 C 68.128906 121.414062 65.703125 114.179688 65.703125 107.34375 C 65.703125 100.546875 68.304688 94.160156 73.03125 89.351562 C 77.765625 84.539062 84.0625 81.886719 90.757812 81.886719 C 95.5625 81.886719 100.230469 83.277344 104.257812 85.90625 C 107.304688 87.898438 109.878906 90.527344 111.824219 93.605469 C 113.769531 90.527344 116.34375 87.898438 119.390625 85.90625 C 123.417969 83.277344 128.082031 81.886719 132.890625 81.886719 C 139.585938 81.886719 145.882812 84.539062 150.613281 89.351562 C 155.339844 94.160156 157.945312 100.546875 157.945312 107.34375 C 157.945312 114.179688 155.519531 121.414062 150.734375 128.84375 C 146.964844 134.691406 141.730469 140.683594 135.167969 146.65625 C 124.054688 156.773438 113.121094 163.25 112.660156 163.523438 C 112.402344 163.671875 112.113281 163.75 111.824219 163.75 Z M 90.757812 85.183594 C 78.761719 85.183594 69.003906 95.125 69.003906 107.34375 C 69.003906 121.484375 80.777344 135.179688 90.65625 144.175781 C 99.792969 152.5 109.046875 158.449219 111.824219 160.167969 C 114.601562 158.449219 123.855469 152.5 132.992188 144.175781 C 142.867188 135.179688 154.644531 121.484375 154.644531 107.34375 C 154.644531 95.125 144.886719 85.183594 132.890625 85.183594 C 124.488281 85.183594 116.984375 89.988281 113.3125 97.726562 C 113.039062 98.300781 112.460938 98.667969 111.824219 98.667969 C 111.1875 98.667969 110.605469 98.300781 110.332031 97.726562 C 106.660156 89.988281 99.160156 85.183594 90.757812 85.183594 Z M 90.757812 85.183594 "/><path style=" stroke:none;fill-rule:nonzero;fill:#ffffff;fill-opacity:1;" d="M 116.269531 142.996094 L 107.375 142.996094 C 103.199219 142.996094 99.796875 139.597656 99.796875 135.417969 C 99.796875 134.507812 100.535156 133.769531 101.445312 133.769531 C 102.359375 133.769531 103.097656 134.507812 103.097656 135.417969 C 103.097656 137.777344 105.015625 139.699219 107.375 139.699219 L 116.269531 139.699219 C 118.628906 139.699219 120.550781 137.777344 120.550781 135.417969 L 120.550781 132.453125 C 120.550781 130.09375 118.628906 128.171875 116.269531 128.171875 L 107.375 128.171875 C 103.199219 128.171875 99.796875 124.773438 99.796875 120.59375 L 99.796875 117.628906 C 99.796875 113.449219 103.199219 110.050781 107.375 110.050781 L 116.269531 110.050781 C 120.449219 110.050781 123.847656 113.449219 123.847656 117.628906 C 123.847656 118.539062 123.109375 119.277344 122.199219 119.277344 C 121.289062 119.277344 120.550781 118.539062 120.550781 117.628906 C 120.550781 115.269531 118.628906 113.347656 116.269531 113.347656 L 107.375 113.347656 C 105.015625 113.347656 103.097656 115.269531 103.097656 117.628906 L 103.097656 120.59375 C 103.097656 122.953125 105.015625 124.875 107.375 124.875 L 116.269531 124.875 C 120.449219 124.875 123.847656 128.273438 123.847656 132.453125 L 123.847656 135.417969 C 123.847656 139.597656 120.449219 142.996094 116.269531 142.996094 Z M 116.269531 142.996094 "/><path style=" stroke:none;fill-rule:nonzero;fill:#ffffff;fill-opacity:1;" d="M 111.824219 113.347656 C 110.914062 113.347656 110.175781 112.609375 110.175781 111.699219 L 110.175781 107.253906 C 110.175781 106.34375 110.914062 105.605469 111.824219 105.605469 C 112.734375 105.605469 113.472656 106.34375 113.472656 107.253906 L 113.472656 111.699219 C 113.472656 112.609375 112.734375 113.347656 111.824219 113.347656 Z M 111.824219 113.347656 "/><path style=" stroke:none;fill-rule:nonzero;fill:#ffffff;fill-opacity:1;" d="M 111.824219 147.445312 C 110.914062 147.445312 110.175781 146.707031 110.175781 145.792969 L 110.175781 141.347656 C 110.175781 140.4375 110.914062 139.699219 111.824219 139.699219 C 112.734375 139.699219 113.472656 140.4375 113.472656 141.347656 L 113.472656 145.792969 C 113.472656 146.707031 112.734375 147.445312 111.824219 147.445312 Z M 111.824219 147.445312 "/><path style=" stroke:none;fill-rule:nonzero;fill:#ffffff;fill-opacity:1;" d="M 111.824219 80.738281 C 110.914062 80.738281 110.175781 80 110.175781 79.089844 L 110.175781 62.78125 C 110.175781 61.871094 110.914062 61.132812 111.824219 61.132812 C 112.734375 61.132812 113.472656 61.871094 113.472656 62.78125 L 113.472656 79.089844 C 113.472656 80 112.734375 80.738281 111.824219 80.738281 Z M 111.824219 80.738281 "/><path style=" stroke:none;fill-rule:nonzero;fill:#ffffff;fill-opacity:1;" d="M 156.292969 82.21875 C 155.382812 82.21875 154.644531 81.480469 154.644531 80.570312 L 154.644531 55.371094 C 154.644531 54.460938 155.382812 53.722656 156.292969 53.722656 C 157.203125 53.722656 157.945312 54.460938 157.945312 55.371094 L 157.945312 80.570312 C 157.945312 81.480469 157.203125 82.21875 156.292969 82.21875 Z M 156.292969 82.21875 "/><path style=" stroke:none;fill-rule:nonzero;fill:#ffffff;fill-opacity:1;" d="M 134.058594 73.324219 C 133.148438 73.324219 132.410156 72.585938 132.410156 71.675781 L 132.410156 47.957031 C 132.410156 47.046875 133.148438 46.308594 134.058594 46.308594 C 134.96875 46.308594 135.707031 47.046875 135.707031 47.957031 L 135.707031 71.675781 C 135.707031 72.585938 134.96875 73.324219 134.058594 73.324219 Z M 134.058594 73.324219 "/><path style=" stroke:none;fill-rule:nonzero;fill:#ffffff;fill-opacity:1;" d="M 111.824219 52.574219 C 110.914062 52.574219 110.175781 51.835938 110.175781 50.921875 L 110.175781 43.511719 C 110.175781 42.601562 110.914062 41.863281 111.824219 41.863281 C 112.734375 41.863281 113.472656 42.601562 113.472656 43.511719 L 113.472656 50.921875 C 113.472656 51.835938 112.734375 52.574219 111.824219 52.574219 Z M 111.824219 52.574219 "/><path style=" stroke:none;fill-rule:nonzero;fill:#ffffff;fill-opacity:1;" d="M 89.589844 73.324219 C 88.675781 73.324219 87.9375 72.585938 87.9375 71.675781 L 87.9375 47.957031 C 87.9375 47.046875 88.675781 46.308594 89.589844 46.308594 C 90.5 46.308594 91.238281 47.046875 91.238281 47.957031 L 91.238281 71.675781 C 91.238281 72.585938 90.5 73.324219 89.589844 73.324219 Z M 89.589844 73.324219 "/><path style=" stroke:none;fill-rule:nonzero;fill:#ffffff;fill-opacity:1;" d="M 67.351562 83.703125 C 66.441406 83.703125 65.703125 82.964844 65.703125 82.054688 L 65.703125 77.605469 C 65.703125 76.695312 66.441406 75.957031 67.351562 75.957031 C 68.265625 75.957031 69.003906 76.695312 69.003906 77.605469 L 69.003906 82.054688 C 69.003906 82.964844 68.265625 83.703125 67.351562 83.703125 Z M 67.351562 83.703125 "/><path style=" stroke:none;fill-rule:nonzero;fill:#ffffff;fill-opacity:1;" d="M 67.351562 67.398438 C 66.441406 67.398438 65.703125 66.65625 65.703125 65.746094 L 65.703125 55.371094 C 65.703125 54.460938 66.441406 53.722656 67.351562 53.722656 C 68.265625 53.722656 69.003906 54.460938 69.003906 55.371094 L 69.003906 65.746094 C 69.003906 66.65625 68.265625 67.398438 67.351562 67.398438 Z M 67.351562 67.398438 "/><path style=" stroke:none;fill-rule:nonzero;fill:#ffffff;fill-opacity:1;" d="M 151.636719 215.183594 L 151.636719 212.148438 C 151.636719 210.230469 152.398438 208.386719 153.757812 207.03125 L 181.882812 178.90625 C 184.144531 176.640625 185.417969 173.574219 185.417969 170.375 L 185.417969 111.738281 C 185.417969 107.570312 182.039062 104.191406 177.871094 104.191406 C 173.949219 104.191406 170.683594 107.191406 170.347656 111.097656 L 167.261719 147.273438 L 166.507812 147.710938 C 163.75 146.632812 160.496094 147.207031 158.273438 149.433594 L 149.492188 158.214844 C 147.003906 160.703125 143.625 162.101562 140.105469 162.101562 L 140.035156 162.101562 C 135.875 162.101562 131.886719 163.753906 128.945312 166.695312 L 115.355469 180.28125 C 113.09375 182.542969 111.824219 185.613281 111.824219 188.8125 L 111.824219 215.183594 Z M 151.636719 215.183594 "/><path style=" stroke:none;fill-rule:nonzero;fill:#ffffff;fill-opacity:1;" d="M 151.636719 216.832031 C 150.726562 216.832031 149.988281 216.09375 149.988281 215.183594 L 149.988281 212.148438 C 149.988281 209.777344 150.910156 207.542969 152.589844 205.863281 L 180.714844 177.738281 C 182.683594 175.769531 183.765625 173.15625 183.765625 170.375 L 183.765625 111.738281 C 183.765625 108.484375 181.121094 105.839844 177.871094 105.839844 C 174.78125 105.839844 172.253906 108.160156 171.992188 111.238281 L 168.902344 147.414062 C 168.859375 147.949219 168.554688 148.429688 168.089844 148.699219 L 167.335938 149.136719 C 166.902344 149.390625 166.375 149.433594 165.90625 149.25 C 163.671875 148.375 161.132812 148.902344 159.4375 150.597656 L 150.65625 159.378906 C 147.839844 162.199219 144.09375 163.75 140.105469 163.75 L 140.035156 163.75 C 136.285156 163.75 132.761719 165.210938 130.113281 167.859375 L 116.523438 181.449219 C 114.554688 183.417969 113.472656 186.03125 113.472656 188.8125 L 113.472656 213.695312 C 114.027344 213.960938 114.410156 214.527344 114.410156 215.183594 C 114.410156 216.09375 113.671875 216.832031 112.761719 216.832031 L 111.824219 216.832031 C 110.914062 216.832031 110.175781 216.09375 110.175781 215.183594 L 110.175781 188.8125 C 110.175781 185.148438 111.601562 181.707031 114.191406 179.117188 L 127.78125 165.527344 C 131.054688 162.253906 135.40625 160.449219 140.035156 160.449219 L 140.105469 160.449219 C 143.210938 160.449219 146.128906 159.242188 148.324219 157.046875 L 157.105469 148.265625 C 159.386719 145.984375 162.652344 145.070312 165.734375 145.757812 L 168.707031 110.957031 C 168.902344 108.65625 169.949219 106.527344 171.648438 104.964844 C 173.351562 103.402344 175.558594 102.542969 177.871094 102.542969 C 182.941406 102.542969 187.066406 106.667969 187.066406 111.738281 L 187.066406 170.375 C 187.066406 174.035156 185.640625 177.480469 183.050781 180.070312 L 154.921875 208.199219 C 153.867188 209.253906 153.285156 210.65625 153.285156 212.148438 L 153.285156 215.183594 C 153.285156 216.09375 152.546875 216.832031 151.636719 216.832031 Z M 151.636719 216.832031 "/><path style=" stroke:none;fill-rule:nonzero;fill:#ffffff;fill-opacity:1;" d="M 111.824219 215.183594 L 111.824219 188.8125 C 111.824219 185.613281 110.550781 182.542969 108.289062 180.28125 L 94.703125 166.695312 C 91.761719 163.753906 87.769531 162.101562 83.609375 162.101562 L 83.539062 162.101562 C 80.019531 162.101562 76.644531 160.703125 74.15625 158.214844 L 65.375 149.433594 C 63.226562 147.28125 60.117188 146.671875 57.421875 147.609375 L 56.386719 147.273438 L 53.296875 111.097656 C 52.964844 107.191406 49.695312 104.191406 45.777344 104.191406 C 41.609375 104.191406 38.230469 107.570312 38.230469 111.738281 L 38.230469 170.375 C 38.230469 173.574219 39.5 176.640625 41.765625 178.90625 L 69.890625 207.03125 C 71.25 208.390625 72.011719 210.230469 72.011719 212.148438 L 72.011719 215.183594 Z M 111.824219 215.183594 "/><path style=" stroke:none;fill-rule:nonzero;fill:#ffffff;fill-opacity:1;" d="M 111.824219 216.832031 C 110.914062 216.832031 110.175781 216.09375 110.175781 215.183594 L 110.175781 188.8125 C 110.175781 186.03125 109.089844 183.414062 107.125 181.449219 L 93.535156 167.859375 C 90.882812 165.210938 87.359375 163.75 83.613281 163.75 L 83.539062 163.75 C 79.554688 163.75 75.808594 162.199219 72.988281 159.378906 L 64.210938 150.597656 C 62.5625 148.949219 60.167969 148.402344 57.964844 149.167969 C 57.625 149.285156 57.257812 149.289062 56.917969 149.179688 L 55.882812 148.84375 C 55.25 148.640625 54.800781 148.078125 54.742188 147.414062 L 51.65625 111.238281 C 51.390625 108.160156 48.867188 105.839844 45.777344 105.839844 C 42.527344 105.839844 39.878906 108.484375 39.878906 111.738281 L 39.878906 170.375 C 39.878906 173.15625 40.964844 175.769531 42.929688 177.738281 L 71.058594 205.863281 C 72.734375 207.542969 73.660156 209.777344 73.660156 212.148438 L 73.660156 215.183594 C 73.660156 216.09375 72.921875 216.832031 72.011719 216.832031 C 71.101562 216.832031 70.363281 216.09375 70.363281 215.183594 L 70.363281 212.148438 C 70.363281 210.65625 69.78125 209.253906 68.726562 208.195312 L 40.597656 180.070312 C 38.007812 177.480469 36.582031 174.035156 36.582031 170.375 L 36.582031 111.738281 C 36.582031 106.667969 40.707031 102.542969 45.777344 102.542969 C 48.085938 102.542969 50.296875 103.402344 51.996094 104.964844 C 53.699219 106.527344 54.746094 108.652344 54.941406 110.957031 L 57.914062 145.757812 C 60.992188 145.078125 64.285156 146.007812 66.542969 148.265625 L 75.324219 157.046875 C 77.519531 159.242188 80.4375 160.449219 83.539062 160.449219 L 83.609375 160.449219 C 88.242188 160.449219 92.59375 162.253906 95.867188 165.527344 L 109.457031 179.117188 C 112.046875 181.707031 113.472656 185.148438 113.472656 188.8125 L 113.472656 215.183594 C 113.472656 216.09375 112.734375 216.832031 111.824219 216.832031 Z M 111.824219 216.832031 "/><path style=" stroke:none;fill-rule:nonzero;fill:#ffffff;fill-opacity:1;" d="M 148.015625 183.050781 C 147.59375 183.050781 147.171875 182.890625 146.851562 182.570312 C 146.207031 181.925781 146.207031 180.882812 146.851562 180.238281 L 167.964844 159.125 C 170.3125 156.773438 170.3125 152.949219 167.964844 150.597656 C 167.648438 150.285156 167.304688 150.007812 166.933594 149.773438 C 166.167969 149.28125 165.941406 148.261719 166.429688 147.496094 C 166.921875 146.726562 167.941406 146.5 168.707031 146.992188 C 169.28125 147.355469 169.8125 147.785156 170.296875 148.265625 C 173.933594 151.902344 173.933594 157.820312 170.296875 161.457031 L 149.183594 182.570312 C 148.859375 182.890625 148.4375 183.050781 148.015625 183.050781 Z M 148.015625 183.050781 "/><path style=" stroke:none;fill-rule:nonzero;fill:#ffffff;fill-opacity:1;" d="M 75.628906 183.050781 C 75.207031 183.050781 74.785156 182.890625 74.464844 182.570312 L 53.351562 161.457031 C 51.589844 159.695312 50.621094 157.351562 50.621094 154.863281 C 50.621094 152.371094 51.589844 150.027344 53.351562 148.265625 C 54.039062 147.578125 54.824219 147.003906 55.683594 146.5625 C 56.496094 146.144531 57.488281 146.464844 57.90625 147.273438 C 58.324219 148.085938 58.003906 149.078125 57.191406 149.496094 C 56.636719 149.78125 56.128906 150.152344 55.683594 150.597656 C 54.546875 151.738281 53.917969 153.25 53.917969 154.863281 C 53.917969 156.472656 54.546875 157.984375 55.683594 159.125 L 76.796875 180.238281 C 77.441406 180.878906 77.441406 181.925781 76.796875 182.570312 C 76.476562 182.890625 76.050781 183.050781 75.628906 183.050781 Z M 75.628906 183.050781 "/><path style=" stroke:none;fill-rule:nonzero;fill:#ffffff;fill-opacity:1;" d="M 220.046875 253.117188 L 195.027344 253.117188 C 189.9375 253.117188 185.808594 257.246094 185.808594 262.339844 L 185.808594 307.523438 L 222.398438 302.425781 L 222.398438 270.742188 L 231.480469 261.65625 L 231.480469 241.683594 Z M 220.046875 253.117188 "/><path style=" stroke:none;fill-rule:nonzero;fill:#ffffff;fill-opacity:1;" d="M 185.808594 309.171875 C 185.414062 309.171875 185.027344 309.027344 184.726562 308.765625 C 184.363281 308.453125 184.160156 308 184.160156 307.523438 L 184.160156 262.339844 C 184.160156 256.34375 189.035156 251.46875 195.027344 251.46875 L 219.363281 251.46875 L 230.316406 240.519531 C 230.785156 240.046875 231.496094 239.90625 232.113281 240.160156 C 232.726562 240.417969 233.128906 241.019531 233.128906 241.683594 L 233.128906 261.65625 C 233.128906 262.09375 232.957031 262.515625 232.648438 262.824219 L 224.046875 271.425781 L 224.046875 302.425781 C 224.046875 303.246094 223.441406 303.945312 222.625 304.058594 L 186.035156 309.15625 C 185.960938 309.164062 185.882812 309.171875 185.808594 309.171875 Z M 195.027344 254.769531 C 190.851562 254.769531 187.457031 258.164062 187.457031 262.339844 L 187.457031 305.625 L 220.746094 300.988281 L 220.746094 270.742188 C 220.746094 270.304688 220.921875 269.882812 221.230469 269.574219 L 229.832031 260.972656 L 229.832031 245.667969 L 221.214844 254.285156 C 220.90625 254.59375 220.484375 254.769531 220.046875 254.769531 Z M 195.027344 254.769531 "/><path style=" stroke:none;fill-rule:nonzero;fill:#641b26;fill-opacity:1;" d="M 193.640625 303.929688 L 193.640625 270.742188 C 193.640625 266.199219 189.957031 262.515625 185.417969 262.515625 L 162.132812 262.515625 C 157.039062 262.515625 152.914062 266.644531 152.914062 271.738281 L 152.914062 306.980469 Z M 193.640625 303.929688 "/><path style=" stroke:none;fill-rule:nonzero;fill:#ffffff;fill-opacity:1;" d="M 152.914062 308.628906 C 152.003906 308.628906 151.265625 307.890625 151.265625 306.980469 L 151.265625 271.738281 C 151.265625 265.742188 156.140625 260.867188 162.132812 260.867188 L 185.417969 260.867188 C 190.859375 260.867188 195.289062 265.296875 195.289062 270.742188 L 195.289062 303.929688 C 195.289062 304.839844 194.550781 305.578125 193.640625 305.578125 C 192.730469 305.578125 191.992188 304.839844 191.992188 303.929688 L 191.992188 270.742188 C 191.992188 267.117188 189.042969 264.167969 185.417969 264.167969 L 162.132812 264.167969 C 157.957031 264.167969 154.5625 267.5625 154.5625 271.738281 L 154.5625 306.980469 C 154.5625 307.890625 153.824219 308.628906 152.914062 308.628906 Z M 152.914062 308.628906 "/><path style=" stroke:none;fill-rule:nonzero;fill:#ffffff;fill-opacity:1;" d="M 163.09375 297.582031 L 163.09375 280.101562 C 163.09375 275.5625 159.414062 271.878906 154.871094 271.878906 L 129.027344 271.878906 C 124.484375 271.878906 120.800781 275.5625 120.800781 280.101562 L 120.800781 297.761719 Z M 163.09375 297.582031 "/><path style=" stroke:none;fill-rule:nonzero;fill:#ffffff;fill-opacity:1;" d="M 120.800781 299.410156 C 120.367188 299.410156 119.945312 299.238281 119.636719 298.929688 C 119.328125 298.621094 119.152344 298.199219 119.152344 297.761719 L 119.152344 280.101562 C 119.152344 274.660156 123.582031 270.230469 129.027344 270.230469 L 154.871094 270.230469 C 160.316406 270.230469 164.746094 274.660156 164.746094 280.101562 L 164.746094 297.582031 C 164.746094 298.492188 164.011719 299.226562 163.101562 299.230469 L 120.808594 299.410156 C 120.804688 299.410156 120.804688 299.410156 120.800781 299.410156 Z M 163.09375 297.582031 L 163.097656 297.582031 Z M 129.027344 273.527344 C 125.402344 273.527344 122.453125 276.476562 122.453125 280.101562 L 122.453125 296.105469 L 161.445312 295.941406 L 161.445312 280.101562 C 161.445312 276.476562 158.496094 273.527344 154.871094 273.527344 Z M 129.027344 273.527344 "/><path style=" stroke:none;fill-rule:nonzero;fill:#641b26;fill-opacity:1;" d="M 247.679688 209.613281 L 258.253906 209.613281 L 241.808594 187.292969 L 225.359375 209.613281 L 235.933594 209.613281 L 233.574219 239.59375 L 232.199219 260.9375 L 229.488281 286.492188 C 229.242188 292.476562 224.5625 297.265625 218.699219 297.726562 C 218.394531 297.75 218.085938 297.761719 217.773438 297.761719 L 112.578125 297.761719 L 112.578125 320.082031 L 214.554688 320.082031 C 234.757812 320.082031 250.03125 305.878906 250.03125 285.632812 L 249.3125 243.773438 L 249.140625 234.671875 Z M 247.679688 209.613281 "/><path style=" stroke:none;fill-rule:nonzero;fill:#ffffff;fill-opacity:1;" d="M 214.554688 321.730469 L 112.578125 321.730469 C 111.667969 321.730469 110.929688 320.992188 110.929688 320.082031 L 110.929688 297.761719 C 110.929688 296.851562 111.667969 296.113281 112.578125 296.113281 L 217.773438 296.113281 C 218.039062 296.113281 218.304688 296.101562 218.570312 296.082031 C 223.644531 295.683594 227.632812 291.53125 227.839844 286.425781 C 227.84375 286.390625 227.84375 286.351562 227.847656 286.316406 L 230.558594 260.796875 L 231.925781 239.488281 C 231.929688 239.480469 231.929688 239.472656 231.929688 239.464844 L 234.148438 211.261719 L 225.359375 211.261719 C 224.738281 211.261719 224.167969 210.914062 223.886719 210.359375 C 223.605469 209.800781 223.664062 209.136719 224.03125 208.636719 L 240.480469 186.3125 C 240.789062 185.890625 241.28125 185.644531 241.808594 185.644531 C 242.332031 185.644531 242.824219 185.890625 243.136719 186.3125 L 259.582031 208.636719 C 259.953125 209.136719 260.007812 209.800781 259.726562 210.359375 C 259.445312 210.914062 258.875 211.261719 258.253906 211.261719 L 249.429688 211.261719 L 250.789062 234.574219 C 250.789062 234.597656 250.789062 234.617188 250.789062 234.640625 L 250.960938 243.742188 L 251.679688 285.605469 C 251.679688 285.617188 251.679688 285.625 251.679688 285.632812 C 251.679688 290.804688 250.726562 295.703125 248.851562 300.195312 C 247.027344 304.546875 244.390625 308.398438 241.007812 311.640625 C 234.222656 318.148438 224.828125 321.730469 214.554688 321.730469 Z M 114.226562 318.433594 L 214.554688 318.433594 C 234.152344 318.433594 248.375 304.644531 248.382812 285.648438 L 247.664062 243.800781 L 247.492188 234.734375 L 246.035156 209.710938 C 246.007812 209.257812 246.167969 208.8125 246.480469 208.480469 C 246.792969 208.152344 247.226562 207.964844 247.679688 207.964844 L 254.992188 207.964844 L 241.808594 190.074219 L 228.625 207.964844 L 235.933594 207.964844 C 236.394531 207.964844 236.832031 208.15625 237.144531 208.496094 C 237.457031 208.832031 237.613281 209.285156 237.578125 209.742188 L 235.21875 239.710938 L 233.847656 261.042969 C 233.84375 261.066406 233.84375 261.089844 233.839844 261.109375 L 231.132812 286.613281 C 230.832031 293.363281 225.550781 298.839844 218.828125 299.371094 C 218.476562 299.398438 218.121094 299.410156 217.773438 299.410156 L 114.226562 299.410156 Z M 114.226562 318.433594 "/><path style=" stroke:none;fill-rule:nonzero;fill:#ffffff;fill-opacity:1;" d="M 154.871094 247.246094 C 154.871094 248.246094 154.773438 249.242188 154.578125 250.222656 C 154.382812 251.207031 154.09375 252.164062 153.707031 253.089844 C 153.324219 254.015625 152.855469 254.894531 152.296875 255.730469 C 151.738281 256.5625 151.105469 257.335938 150.398438 258.042969 C 149.6875 258.753906 148.917969 259.386719 148.082031 259.941406 C 147.25 260.5 146.371094 260.972656 145.441406 261.355469 C 144.515625 261.738281 143.5625 262.027344 142.578125 262.222656 C 141.59375 262.417969 140.601562 262.515625 139.597656 262.515625 C 138.597656 262.515625 137.601562 262.417969 136.621094 262.222656 C 135.636719 262.027344 134.679688 261.738281 133.753906 261.355469 C 132.828125 260.972656 131.949219 260.5 131.113281 259.941406 C 130.28125 259.386719 129.507812 258.753906 128.800781 258.042969 C 128.089844 257.335938 127.457031 256.5625 126.898438 255.730469 C 126.34375 254.894531 125.871094 254.015625 125.488281 253.089844 C 125.105469 252.164062 124.816406 251.207031 124.621094 250.222656 C 124.425781 249.242188 124.328125 248.246094 124.328125 247.246094 C 124.328125 246.242188 124.425781 245.25 124.621094 244.265625 C 124.816406 243.28125 125.105469 242.328125 125.488281 241.398438 C 125.871094 240.472656 126.34375 239.59375 126.898438 238.757812 C 127.457031 237.925781 128.089844 237.15625 128.800781 236.445312 C 129.507812 235.734375 130.28125 235.101562 131.113281 234.546875 C 131.949219 233.988281 132.828125 233.519531 133.753906 233.132812 C 134.679688 232.75 135.636719 232.460938 136.621094 232.265625 C 137.601562 232.070312 138.597656 231.972656 139.597656 231.972656 C 140.601562 231.972656 141.59375 232.070312 142.578125 232.265625 C 143.5625 232.460938 144.515625 232.75 145.441406 233.132812 C 146.371094 233.519531 147.25 233.988281 148.082031 234.546875 C 148.917969 235.101562 149.6875 235.734375 150.398438 236.445312 C 151.105469 237.15625 151.738281 237.925781 152.296875 238.757812 C 152.855469 239.59375 153.324219 240.472656 153.707031 241.398438 C 154.09375 242.328125 154.382812 243.28125 154.578125 244.265625 C 154.773438 245.25 154.871094 246.242188 154.871094 247.246094 Z M 154.871094 247.246094 "/><path style=" stroke:none;fill-rule:nonzero;fill:#ffffff;fill-opacity:1;" d="M 139.597656 264.167969 C 130.269531 264.167969 122.675781 256.574219 122.675781 247.246094 C 122.675781 237.914062 130.269531 230.324219 139.597656 230.324219 C 148.929688 230.324219 156.519531 237.914062 156.519531 247.246094 C 156.519531 256.574219 148.929688 264.167969 139.597656 264.167969 Z M 139.597656 233.621094 C 132.085938 233.621094 125.976562 239.734375 125.976562 247.246094 C 125.976562 254.757812 132.085938 260.867188 139.597656 260.867188 C 147.109375 260.867188 153.222656 254.757812 153.222656 247.246094 C 153.222656 239.734375 147.109375 233.621094 139.597656 233.621094 Z M 139.597656 233.621094 "/><path style=" stroke:none;fill-rule:nonzero;fill:#ffffff;fill-opacity:1;" d="M 120.800781 290.675781 L 120.800781 325.921875 C 120.800781 329.8125 123.957031 332.96875 127.851562 332.96875 C 131.742188 332.96875 134.898438 329.8125 134.898438 325.921875 L 134.898438 290.675781 Z M 120.800781 290.675781 "/><path style=" stroke:none;fill-rule:nonzero;fill:#ffffff;fill-opacity:1;" d="M 127.851562 334.617188 C 123.054688 334.617188 119.152344 330.714844 119.152344 325.921875 L 119.152344 290.675781 C 119.152344 289.765625 119.890625 289.027344 120.800781 289.027344 C 121.710938 289.027344 122.453125 289.765625 122.453125 290.675781 L 122.453125 325.921875 C 122.453125 328.898438 124.875 331.320312 127.851562 331.320312 C 130.828125 331.320312 133.25 328.898438 133.25 325.921875 L 133.25 290.675781 C 133.25 289.765625 133.988281 289.027344 134.898438 289.027344 C 135.808594 289.027344 136.550781 289.765625 136.550781 290.675781 L 136.550781 325.921875 C 136.550781 330.714844 132.648438 334.617188 127.851562 334.617188 Z M 127.851562 334.617188 "/><path style=" stroke:none;fill-rule:nonzero;fill:#ffffff;fill-opacity:1;" d="M 188.15625 237.667969 C 188.15625 238.671875 188.058594 239.664062 187.863281 240.648438 C 187.667969 241.628906 187.378906 242.585938 186.996094 243.511719 C 186.609375 244.4375 186.140625 245.320312 185.582031 246.152344 C 185.027344 246.984375 184.394531 247.757812 183.683594 248.464844 C 182.976562 249.175781 182.203125 249.808594 181.371094 250.367188 C 180.535156 250.921875 179.65625 251.394531 178.730469 251.777344 C 177.804688 252.160156 176.847656 252.449219 175.863281 252.644531 C 174.882812 252.84375 173.886719 252.941406 172.886719 252.941406 C 171.882812 252.941406 170.890625 252.84375 169.90625 252.644531 C 168.921875 252.449219 167.96875 252.160156 167.039062 251.777344 C 166.113281 251.394531 165.234375 250.921875 164.398438 250.367188 C 163.566406 249.808594 162.792969 249.175781 162.085938 248.464844 C 161.375 247.757812 160.742188 246.984375 160.1875 246.152344 C 159.628906 245.320312 159.160156 244.4375 158.773438 243.511719 C 158.390625 242.585938 158.101562 241.628906 157.90625 240.648438 C 157.710938 239.664062 157.613281 238.671875 157.613281 237.667969 C 157.613281 236.664062 157.710938 235.671875 157.90625 234.6875 C 158.101562 233.703125 158.390625 232.75 158.773438 231.824219 C 159.160156 230.894531 159.628906 230.015625 160.1875 229.183594 C 160.742188 228.347656 161.375 227.578125 162.085938 226.867188 C 162.792969 226.160156 163.566406 225.527344 164.398438 224.96875 C 165.234375 224.410156 166.113281 223.941406 167.039062 223.558594 C 167.96875 223.171875 168.921875 222.882812 169.90625 222.6875 C 170.890625 222.492188 171.882812 222.394531 172.886719 222.394531 C 173.886719 222.394531 174.882812 222.492188 175.863281 222.6875 C 176.847656 222.882812 177.804688 223.171875 178.730469 223.558594 C 179.65625 223.941406 180.535156 224.410156 181.371094 224.96875 C 182.203125 225.527344 182.976562 226.160156 183.683594 226.867188 C 184.394531 227.578125 185.027344 228.347656 185.582031 229.183594 C 186.140625 230.015625 186.609375 230.894531 186.996094 231.824219 C 187.378906 232.75 187.667969 233.703125 187.863281 234.6875 C 188.058594 235.671875 188.15625 236.664062 188.15625 237.667969 Z M 188.15625 237.667969 "/><path style=" stroke:none;fill-rule:nonzero;fill:#ffffff;fill-opacity:1;" d="M 172.886719 254.589844 C 163.554688 254.589844 155.964844 247 155.964844 237.667969 C 155.964844 228.335938 163.554688 220.746094 172.886719 220.746094 C 182.214844 220.746094 189.808594 228.335938 189.808594 237.667969 C 189.808594 247 182.214844 254.589844 172.886719 254.589844 Z M 172.886719 224.042969 C 165.375 224.042969 159.261719 230.15625 159.261719 237.667969 C 159.261719 245.179688 165.375 251.289062 172.886719 251.289062 C 180.398438 251.289062 186.507812 245.179688 186.507812 237.667969 C 186.507812 230.15625 180.398438 224.042969 172.886719 224.042969 Z M 172.886719 224.042969 "/><path style=" stroke:none;fill-rule:nonzero;fill:#ffffff;fill-opacity:1;" d="M 222.226562 228.269531 C 222.226562 229.273438 222.128906 230.265625 221.933594 231.25 C 221.738281 232.230469 221.449219 233.1875 221.0625 234.113281 C 220.679688 235.039062 220.210938 235.921875 219.652344 236.753906 C 219.097656 237.585938 218.460938 238.359375 217.753906 239.066406 C 217.042969 239.777344 216.273438 240.410156 215.4375 240.96875 C 214.605469 241.523438 213.726562 241.996094 212.800781 242.378906 C 211.871094 242.761719 210.917969 243.050781 209.933594 243.246094 C 208.949219 243.445312 207.957031 243.542969 206.953125 243.542969 C 205.953125 243.542969 204.957031 243.445312 203.976562 243.246094 C 202.992188 243.050781 202.035156 242.761719 201.109375 242.378906 C 200.183594 241.996094 199.304688 241.523438 198.46875 240.96875 C 197.636719 240.410156 196.863281 239.777344 196.15625 239.066406 C 195.445312 238.359375 194.8125 237.585938 194.253906 236.753906 C 193.699219 235.921875 193.226562 235.039062 192.84375 234.113281 C 192.460938 233.1875 192.171875 232.230469 191.976562 231.25 C 191.78125 230.265625 191.683594 229.273438 191.683594 228.269531 C 191.683594 227.265625 191.78125 226.273438 191.976562 225.289062 C 192.171875 224.304688 192.460938 223.351562 192.84375 222.425781 C 193.226562 221.496094 193.699219 220.617188 194.253906 219.785156 C 194.8125 218.949219 195.445312 218.179688 196.15625 217.46875 C 196.863281 216.761719 197.636719 216.128906 198.46875 215.570312 C 199.304688 215.011719 200.183594 214.542969 201.109375 214.160156 C 202.035156 213.773438 202.992188 213.484375 203.976562 213.289062 C 204.957031 213.09375 205.953125 212.996094 206.953125 212.996094 C 207.957031 212.996094 208.949219 213.09375 209.933594 213.289062 C 210.917969 213.484375 211.871094 213.773438 212.800781 214.160156 C 213.726562 214.542969 214.605469 215.011719 215.4375 215.570312 C 216.273438 216.128906 217.042969 216.761719 217.753906 217.46875 C 218.460938 218.179688 219.097656 218.949219 219.652344 219.785156 C 220.210938 220.617188 220.679688 221.496094 221.0625 222.425781 C 221.449219 223.351562 221.738281 224.304688 221.933594 225.289062 C 222.128906 226.273438 222.226562 227.265625 222.226562 228.269531 Z M 222.226562 228.269531 "/><path style=" stroke:none;fill-rule:nonzero;fill:#ffffff;fill-opacity:1;" d="M 206.953125 245.191406 C 197.625 245.191406 190.03125 237.601562 190.03125 228.269531 C 190.03125 218.9375 197.625 211.347656 206.953125 211.347656 C 216.285156 211.347656 223.875 218.9375 223.875 228.269531 C 223.875 237.601562 216.285156 245.191406 206.953125 245.191406 Z M 206.953125 214.644531 C 199.441406 214.644531 193.332031 220.757812 193.332031 228.269531 C 193.332031 235.78125 199.441406 241.890625 206.953125 241.890625 C 214.464844 241.890625 220.578125 235.78125 220.578125 228.269531 C 220.578125 220.757812 214.464844 214.644531 206.953125 214.644531 Z M 206.953125 214.644531 "/><path style=" stroke:none;fill-rule:nonzero;fill:#ffffff;fill-opacity:1;" d="M 229.671875 263.46875 L 248.820312 244.316406 C 251.695312 241.445312 251.554688 236.746094 248.519531 234.046875 C 245.726562 231.5625 241.480469 231.6875 238.835938 234.332031 L 220.488281 252.675781 Z M 229.671875 263.46875 "/><path style=" stroke:none;fill-rule:nonzero;fill:#ffffff;fill-opacity:1;" d="M 229.671875 265.117188 C 229.25 265.117188 228.828125 264.957031 228.503906 264.632812 C 227.859375 263.988281 227.859375 262.945312 228.503906 262.300781 L 247.65625 243.148438 C 248.71875 242.085938 249.28125 240.667969 249.238281 239.164062 C 249.195312 237.660156 248.550781 236.277344 247.425781 235.277344 C 245.285156 233.378906 242.027344 233.472656 240.003906 235.496094 L 221.65625 253.84375 C 221.011719 254.488281 219.96875 254.488281 219.324219 253.84375 C 218.679688 253.199219 218.679688 252.152344 219.324219 251.511719 L 237.667969 233.164062 C 240.925781 229.90625 246.171875 229.753906 249.617188 232.8125 C 251.425781 234.421875 252.464844 236.644531 252.535156 239.066406 C 252.605469 241.488281 251.703125 243.769531 249.988281 245.484375 L 230.835938 264.632812 C 230.515625 264.957031 230.09375 265.117188 229.671875 265.117188 Z M 229.671875 265.117188 "/></g></svg>