<svg xmlns="http://www.w3.org/2000/svg" xmlns:xlink="http://www.w3.org/1999/xlink" width="500" zoomAndPan="magnify" viewBox="0 0 375 374.999991" height="500" preserveAspectRatio="xMidYMid meet" version="1.2"><defs><filter x="0%" y="0%" width="100%" filterUnits="objectBoundingBox" id="1bce692e1e" height="100%"><feColorMatrix values="0 0 0 0 1 0 0 0 0 1 0 0 0 0 1 0 0 0 1 0" type="matrix" in="SourceGraphic"/></filter><clipPath id="049e1fb991"><path d="M 0.359375 1 L 26 1 L 26 62 L 0.359375 62 Z M 0.359375 1 "/></clipPath><clipPath id="ef61f51468"><rect x="0" width="27" y="0" height="63"/></clipPath><clipPath id="c5f0b1d54c"><path d="M 15.464844 334 L 346 334 L 346 337.394531 L 15.464844 337.394531 Z M 15.464844 334 "/></clipPath></defs><g id="9ebbf5128d"><path style=" stroke:none;fill-rule:nonzero;fill:#000000;fill-opacity:1;" d="M 235.414062 272.425781 C 222.667969 275.085938 209.496094 276.367188 196.105469 276.925781 C 162.117188 278.339844 126.398438 275.34375 93.824219 265.386719 C 50.464844 252.128906 32.386719 199.371094 60.472656 163.039062 C 68.660156 152.460938 79.496094 146.265625 90 138.433594 C 102.363281 129.210938 113.683594 118.589844 122.398438 105.785156 C 130.003906 94.605469 135.019531 81.808594 143.328125 71.101562 C 152.511719 59.277344 166.234375 51.90625 180.914062 49.5625 C 233.609375 41.148438 291.957031 71.554688 323.851562 112.632812 C 358.988281 157.882812 329.015625 219.480469 288.433594 249.5 C 272.140625 261.550781 254.238281 268.5 235.414062 272.425781 Z M 235.414062 272.425781 "/><path style=" stroke:none;fill-rule:nonzero;fill:#000000;fill-opacity:1;" d="M 35.984375 202.417969 C 34.664062 202.417969 33.542969 201.402344 33.433594 200.0625 C 31.242188 173.359375 44.203125 151.597656 71.964844 135.402344 C 97.132812 120.722656 114.3125 92.789062 114.488281 92.503906 C 115.226562 91.296875 116.800781 90.90625 118.011719 91.640625 C 119.21875 92.378906 119.601562 93.953125 118.875 95.164062 C 118.15625 96.351562 100.863281 124.480469 74.558594 139.832031 C 48.648438 154.945312 36.53125 175.066406 38.554688 199.644531 C 38.671875 201.058594 37.617188 202.289062 36.210938 202.40625 C 36.128906 202.417969 36.0625 202.417969 35.984375 202.417969 Z M 35.984375 202.417969 "/><path style=" stroke:none;fill-rule:nonzero;fill:#ffffff;fill-opacity:1;" d="M 114.128906 323.988281 C 114.128906 323.988281 115.140625 331.519531 116.136719 332.65625 C 119.476562 336.5 127 335.203125 130.734375 332.882812 C 133.09375 331.417969 130.902344 326.355469 130.902344 326.355469 Z M 114.128906 323.988281 "/><path style=" stroke:none;fill-rule:nonzero;fill:#641b26;fill-opacity:1;" d="M 125.996094 316.253906 C 125.996094 316.253906 128.324219 321.390625 128.691406 321.9375 C 129.066406 322.480469 135.402344 330.253906 126.984375 331.972656 C 118.566406 333.6875 116.664062 332.480469 114.671875 326.789062 C 113.527344 323.5 114.773438 317.117188 114.773438 317.117188 C 114.773438 317.117188 115.234375 319.015625 118.128906 319.058594 C 123.210938 319.125 125.4375 318.09375 125.996094 316.253906 Z M 125.996094 316.253906 "/><path style=" stroke:none;fill-rule:nonzero;fill:#ffffff;fill-opacity:1;" d="M 125.050781 320.0625 L 118.625 320.964844 C 118.378906 321 118.164062 320.832031 118.128906 320.589844 C 118.097656 320.347656 118.261719 320.128906 118.507812 320.09375 L 124.933594 319.191406 C 125.175781 319.15625 125.394531 319.324219 125.425781 319.566406 C 125.460938 319.8125 125.292969 320.027344 125.050781 320.0625 Z M 125.050781 320.0625 "/><path style=" stroke:none;fill-rule:nonzero;fill:#ffffff;fill-opacity:1;" d="M 125.453125 321.800781 L 119.023438 322.707031 C 118.78125 322.738281 118.566406 322.574219 118.53125 322.328125 C 118.496094 322.085938 118.664062 321.871094 118.90625 321.835938 L 125.335938 320.933594 C 125.578125 320.898438 125.796875 321.066406 125.828125 321.308594 C 125.863281 321.542969 125.695312 321.769531 125.453125 321.800781 Z M 125.453125 321.800781 "/><path style=" stroke:none;fill-rule:nonzero;fill:#ffffff;fill-opacity:1;" d="M 125.894531 323.84375 L 119.46875 324.75 C 119.226562 324.78125 119.007812 324.613281 118.976562 324.371094 C 118.941406 324.128906 119.109375 323.910156 119.351562 323.878906 L 125.777344 322.972656 C 126.023438 322.941406 126.238281 323.109375 126.273438 323.351562 C 126.304688 323.59375 126.140625 323.8125 125.894531 323.84375 Z M 125.894531 323.84375 "/><path style=" stroke:none;fill-rule:nonzero;fill:#641b26;fill-opacity:1;" d="M 113.71875 236.503906 C 110.203125 221.683594 109.132812 206.582031 109.132812 206.582031 L 95.339844 195.804688 L 65.238281 206.800781 C 64.230469 220.234375 64.992188 280.425781 64.953125 288.703125 C 64.910156 296.980469 64.859375 316.582031 64.859375 316.582031 C 64.859375 316.582031 74.792969 318.789062 78.761719 315.441406 C 78.761719 315.441406 80.761719 300.996094 81.246094 294.242188 C 82.886719 271.210938 87.128906 232.371094 87.128906 232.371094 C 87.128906 232.371094 93.597656 250.796875 99.140625 265.378906 L 112.1875 314.730469 C 124.449219 315.917969 127.929688 312.765625 127.929688 312.765625 C 127.929688 312.765625 116.085938 246.480469 113.71875 236.503906 Z M 113.71875 236.503906 "/><path style=" stroke:none;fill-rule:nonzero;fill:#000000;fill-opacity:1;" d="M 87.128906 232.570312 C 87.039062 232.570312 86.953125 232.503906 86.9375 232.410156 L 85.136719 223.207031 C 85.121094 223.097656 85.1875 222.996094 85.289062 222.980469 C 85.398438 222.960938 85.5 223.03125 85.515625 223.128906 L 87.3125 232.335938 C 87.332031 232.445312 87.265625 232.546875 87.164062 232.5625 C 87.15625 232.570312 87.148438 232.570312 87.128906 232.570312 Z M 87.128906 232.570312 "/><path style=" stroke:none;fill-rule:nonzero;fill:#000000;fill-opacity:1;" d="M 86.234375 227.96875 C 86.210938 227.96875 86.183594 227.957031 86.160156 227.949219 C 86.015625 227.890625 82.746094 226.535156 81.355469 225.390625 C 81.273438 225.324219 81.261719 225.195312 81.332031 225.113281 C 81.398438 225.03125 81.523438 225.019531 81.605469 225.089844 C 82.953125 226.191406 86.277344 227.574219 86.308594 227.589844 C 86.410156 227.632812 86.453125 227.742188 86.417969 227.839844 C 86.386719 227.925781 86.308594 227.96875 86.234375 227.96875 Z M 86.234375 227.96875 "/><path style=" stroke:none;fill-rule:nonzero;fill:#ffffff;fill-opacity:1;" d="M 48.722656 330.355469 C 48.722656 330.355469 47.9375 334.882812 53.269531 335.425781 C 58.597656 335.972656 62.339844 335.679688 65.09375 335.085938 C 67.847656 334.480469 69.394531 333.621094 72.292969 333.863281 C 75.1875 334.105469 78.148438 335.308594 79.605469 333.835938 C 80.804688 332.632812 79.707031 329.335938 79.707031 329.335938 L 63.746094 329.410156 Z M 48.722656 330.355469 "/><path style=" stroke:none;fill-rule:nonzero;fill:#641b26;fill-opacity:1;" d="M 65.605469 320.621094 C 65.605469 320.621094 59.277344 325.132812 56.164062 326.671875 C 53.050781 328.203125 49.007812 327.140625 48.730469 330.355469 C 48.457031 333.570312 57.242188 332.867188 62.390625 332.390625 C 67.539062 331.914062 71.144531 329.902344 73.839844 330.707031 C 76.535156 331.503906 79.53125 330.222656 79.722656 329.335938 C 79.914062 328.449219 78.617188 320.628906 77.933594 319.886719 C 77.933594 319.886719 77.554688 321.425781 72.484375 321.558594 C 67.414062 321.683594 65.605469 320.621094 65.605469 320.621094 Z M 65.605469 320.621094 "/><path style=" stroke:none;fill-rule:nonzero;fill:#ffffff;fill-opacity:1;" d="M 59.703125 327.152344 L 59.628906 327.199219 C 59.476562 327.292969 59.292969 327.242188 59.203125 327.09375 L 58.238281 325.460938 C 58.15625 325.308594 58.199219 325.117188 58.347656 325.03125 L 58.421875 324.984375 C 58.574219 324.890625 58.757812 324.941406 58.851562 325.089844 L 59.8125 326.722656 C 59.90625 326.867188 59.855469 327.058594 59.703125 327.152344 Z M 59.703125 327.152344 "/><path style=" stroke:none;fill-rule:nonzero;fill:#ffffff;fill-opacity:1;" d="M 61.144531 326.128906 L 61.070312 326.179688 C 60.917969 326.273438 60.734375 326.222656 60.640625 326.070312 L 59.679688 324.4375 C 59.59375 324.289062 59.636719 324.09375 59.789062 324.011719 L 59.863281 323.960938 C 60.015625 323.871094 60.199219 323.917969 60.289062 324.070312 L 61.253906 325.703125 C 61.335938 325.851562 61.285156 326.046875 61.144531 326.128906 Z M 61.144531 326.128906 "/><path style=" stroke:none;fill-rule:nonzero;fill:#ffffff;fill-opacity:1;" d="M 62.816406 325.050781 L 62.742188 325.101562 C 62.589844 325.191406 62.40625 325.140625 62.316406 324.992188 L 61.351562 323.359375 C 61.269531 323.207031 61.3125 323.015625 61.460938 322.933594 L 61.539062 322.882812 C 61.6875 322.789062 61.871094 322.839844 61.964844 322.992188 L 62.925781 324.621094 C 63.011719 324.773438 62.96875 324.964844 62.816406 325.050781 Z M 62.816406 325.050781 "/><path style=" stroke:none;fill-rule:nonzero;fill:#ffffff;fill-opacity:1;" d="M 64.476562 323.988281 L 64.398438 324.035156 C 64.25 324.128906 64.066406 324.078125 63.972656 323.929688 L 63.011719 322.296875 C 62.925781 322.144531 62.96875 321.953125 63.117188 321.871094 L 63.195312 321.820312 C 63.34375 321.726562 63.527344 321.777344 63.621094 321.929688 L 64.582031 323.558594 C 64.667969 323.703125 64.617188 323.894531 64.476562 323.988281 Z M 64.476562 323.988281 "/><path style=" stroke:none;fill-rule:nonzero;fill:#c47249;fill-opacity:1;" d="M 78.953125 174.355469 C 69.246094 175.878906 52.605469 179.945312 52.605469 179.945312 C 53.261719 170.011719 54.457031 162.144531 55.929688 155.925781 C 61.167969 133.78125 71.421875 132.40625 71.421875 132.40625 L 79.011719 136.257812 L 87.808594 139.992188 C 87.808594 139.992188 88.660156 172.832031 78.953125 174.355469 Z M 78.953125 174.355469 "/><path style=" stroke:none;fill-rule:nonzero;fill:#c47249;fill-opacity:1;" d="M 68.058594 176.355469 C 68.058594 176.355469 72.339844 188.371094 63.957031 189.644531 C 60.894531 190.113281 46.320312 178.339844 46.320312 178.339844 L 55.953125 172.253906 Z M 68.058594 176.355469 "/><path style=" stroke:none;fill-rule:nonzero;fill:#ffffff;fill-opacity:1;" d="M 79.011719 136.257812 C 78.375 144.558594 76.71875 155.171875 72.417969 156.09375 C 67.078125 157.230469 59.429688 156.410156 55.921875 155.925781 C 61.160156 133.78125 70.359375 132.230469 70.359375 132.230469 Z M 79.011719 136.257812 "/><path style=" stroke:none;fill-rule:nonzero;fill:#641b26;fill-opacity:1;" d="M 66.515625 156.753906 C 66.515625 156.753906 66.507812 156.753906 66.515625 156.753906 C 66.449219 156.753906 66.40625 156.703125 66.40625 156.644531 C 66.40625 156.578125 66.816406 150.328125 67.664062 146.945312 C 67.679688 146.886719 67.738281 146.851562 67.789062 146.871094 C 67.847656 146.886719 67.882812 146.945312 67.863281 146.996094 C 67.019531 150.367188 66.617188 156.59375 66.617188 156.660156 C 66.617188 156.703125 66.574219 156.753906 66.515625 156.753906 Z M 66.515625 156.753906 "/><path style=" stroke:none;fill-rule:nonzero;fill:#c47249;fill-opacity:1;" d="M 74.300781 138.660156 C 74.332031 138.566406 82.59375 147.320312 87.984375 145.554688 C 94.007812 143.574219 96.703125 131.292969 96.703125 131.292969 L 95.75 118.96875 L 95.742188 118.765625 L 95.726562 118.03125 L 94.535156 118.464844 L 89.808594 120.1875 L 87.910156 120.882812 L 83.054688 122.648438 C 83.054688 122.648438 82.96875 125.839844 82.367188 128.425781 C 82.300781 128.699219 82.242188 128.953125 82.175781 129.203125 C 82.042969 129.628906 81.839844 130.03125 81.613281 130.367188 C 81.097656 131.175781 80.453125 131.695312 80.453125 131.703125 C 79.230469 134.273438 74.34375 138.660156 74.300781 138.660156 Z M 74.300781 138.660156 "/><path style=" stroke:none;fill-rule:nonzero;fill:#c47249;fill-opacity:1;" d="M 76.132812 115.335938 C 77.65625 122.03125 80.351562 128.734375 86.835938 127.738281 C 91.375 127.035156 95.742188 120.75 96.722656 114.984375 C 97.222656 112.003906 97.691406 109.410156 97.683594 107.449219 C 97.675781 105.902344 97.601562 104.933594 97.601562 104.933594 L 96.488281 101.566406 L 95.824219 99.601562 C 95.824219 99.601562 94.371094 98.421875 92.738281 97.089844 C 90.703125 95.425781 87.574219 97.835938 87.523438 97.71875 C 87.441406 97.542969 78.324219 96.269531 75.464844 99.917969 C 75.457031 99.925781 75.445312 99.933594 75.445312 99.945312 C 75.1875 100.277344 74.988281 100.613281 74.859375 100.957031 C 74.753906 101.242188 74.703125 101.535156 74.703125 101.828125 C 74.703125 102.386719 74.726562 103.234375 74.761719 104.296875 C 74.785156 104.738281 74.800781 105.226562 74.835938 105.742188 C 74.886719 106.613281 74.960938 107.566406 75.0625 108.574219 C 75.261719 110.671875 75.597656 113.015625 76.132812 115.335938 Z M 76.132812 115.335938 "/><path style=" stroke:none;fill-rule:nonzero;fill:#641b26;fill-opacity:1;" d="M 76.917969 118.40625 C 78.316406 124.523438 80.921875 128.332031 86.902344 127.738281 C 92.628906 127.175781 95.640625 121.058594 96.535156 115.785156 C 96.050781 114.539062 95.550781 111.453125 95.550781 111.453125 C 95.550781 111.453125 94.085938 109.175781 94.101562 109.257812 C 94.292969 110.203125 94.226562 116.664062 91.449219 117.46875 C 88.425781 118.347656 87.347656 119.125 86.191406 119.109375 C 85.039062 119.09375 84.695312 118.691406 83.683594 118.941406 C 82.660156 119.191406 81.964844 119.726562 80.59375 119.492188 C 79.304688 119.285156 77.882812 120.195312 76.917969 118.40625 Z M 76.917969 118.40625 "/><path style=" stroke:none;fill-rule:nonzero;fill:#641b26;fill-opacity:1;" d="M 97.984375 107.375 C 97.984375 107.375 99.074219 92.710938 90.527344 92.710938 C 90.527344 92.710938 83.875 89.597656 76.519531 93.84375 C 71.679688 96.628906 73.429688 102.480469 73.914062 104.503906 C 74.214844 105.777344 74.734375 106.832031 74.902344 106.765625 C 75.371094 106.570312 75.421875 105.300781 77.136719 105.691406 C 84.09375 107.285156 88.453125 102.070312 90.402344 103.207031 C 92.351562 104.347656 96.546875 115.785156 96.546875 115.785156 C 96.546875 115.785156 96.898438 110.378906 97.984375 107.375 Z M 97.984375 107.375 "/><path style=" stroke:none;fill-rule:nonzero;fill:#c47249;fill-opacity:1;" d="M 96.292969 108.648438 C 96.292969 108.648438 100.144531 105.886719 100.195312 109.886719 C 100.246094 113.886719 96.527344 115.796875 96.527344 115.796875 Z M 96.292969 108.648438 "/><path style=" stroke:none;fill-rule:nonzero;fill:#641b26;fill-opacity:1;" d="M 97.324219 109.886719 C 97.324219 109.886719 100.386719 108.808594 97.449219 113.242188 Z M 97.324219 109.886719 "/><path style=" stroke:none;fill-rule:nonzero;fill:#641b26;fill-opacity:1;" d="M 80.289062 113.367188 C 80.371094 113.65625 80.382812 113.921875 80.324219 114.160156 C 80.261719 114.398438 80.148438 114.542969 79.980469 114.589844 C 79.808594 114.636719 79.636719 114.578125 79.457031 114.40625 C 79.28125 114.238281 79.148438 114.007812 79.066406 113.71875 C 78.984375 113.429688 78.972656 113.167969 79.035156 112.929688 C 79.09375 112.691406 79.210938 112.546875 79.378906 112.5 C 79.546875 112.449219 79.71875 112.511719 79.898438 112.679688 C 80.078125 112.851562 80.207031 113.078125 80.289062 113.367188 Z M 80.289062 113.367188 "/><path style=" stroke:none;fill-rule:nonzero;fill:#641b26;fill-opacity:1;" d="M 87.679688 112.152344 C 87.761719 112.441406 87.773438 112.707031 87.710938 112.945312 C 87.652344 113.183594 87.539062 113.328125 87.367188 113.375 C 87.199219 113.425781 87.027344 113.363281 86.847656 113.191406 C 86.671875 113.023438 86.539062 112.792969 86.457031 112.503906 C 86.375 112.214844 86.363281 111.953125 86.421875 111.714844 C 86.484375 111.476562 86.597656 111.332031 86.769531 111.285156 C 86.9375 111.234375 87.109375 111.296875 87.289062 111.464844 C 87.464844 111.636719 87.597656 111.867188 87.679688 112.152344 Z M 87.679688 112.152344 "/><path style=" stroke:none;fill-rule:nonzero;fill:#641b26;fill-opacity:1;" d="M 80.59375 111.460938 C 80.59375 111.460938 78.675781 110.210938 77.164062 111.148438 Z M 80.59375 111.460938 "/><path style=" stroke:none;fill-rule:nonzero;fill:#641b26;fill-opacity:1;" d="M 89.421875 109.316406 C 89.273438 109.308594 86.902344 109.050781 85.605469 110.648438 Z M 89.421875 109.316406 "/><path style=" stroke:none;fill-rule:nonzero;fill:#641b26;fill-opacity:1;" d="M 83.371094 116.589844 C 82.902344 116.589844 82.695312 116.371094 82.601562 116.203125 C 82.328125 115.710938 82.628906 114.941406 83.0625 114.605469 C 83.113281 114.566406 83.179688 114.582031 83.222656 114.632812 C 83.253906 114.683594 83.246094 114.75 83.195312 114.789062 C 82.804688 115.09375 82.601562 115.746094 82.792969 116.097656 C 82.980469 116.429688 83.488281 116.457031 84.226562 116.171875 C 84.285156 116.144531 84.351562 116.179688 84.367188 116.238281 C 84.394531 116.296875 84.359375 116.363281 84.300781 116.378906 C 83.917969 116.53125 83.613281 116.589844 83.371094 116.589844 Z M 83.371094 116.589844 "/><path style=" stroke:none;fill-rule:nonzero;fill:#ffffff;fill-opacity:1;" d="M 82.410156 122.363281 C 82.410156 122.363281 82.503906 122.523438 82.710938 122.714844 C 83.070312 123.066406 83.773438 123.542969 84.835938 123.417969 C 85.882812 123.292969 86.542969 122.617188 86.886719 122.148438 C 87.070312 121.878906 87.164062 121.6875 87.164062 121.6875 Z M 82.410156 122.363281 "/><path style=" stroke:none;fill-rule:nonzero;fill:#ffffff;fill-opacity:1;" d="M 115.636719 137.085938 C 109.417969 148.910156 108.355469 187.914062 109.871094 208.542969 C 96.21875 211.765625 76.601562 213.363281 64.976562 210.148438 C 66.660156 188.113281 63.957031 151.75 70.359375 132.230469 C 70.359375 132.230469 77.648438 130.132812 82.433594 129.9375 C 78.402344 135.402344 93.523438 136.886719 96.722656 129.9375 C 96.722656 129.9375 112.136719 133.144531 115.636719 137.085938 Z M 115.636719 137.085938 "/><path style=" stroke:none;fill-rule:nonzero;fill:#641b26;fill-opacity:1;" d="M 66.515625 156.753906 C 66.515625 156.753906 66.507812 156.753906 66.515625 156.753906 C 66.449219 156.753906 66.40625 156.703125 66.40625 156.644531 C 66.40625 156.578125 66.816406 150.328125 67.664062 146.945312 C 67.679688 146.886719 67.738281 146.851562 67.789062 146.871094 C 67.847656 146.886719 67.882812 146.945312 67.863281 146.996094 C 67.019531 150.367188 66.617188 156.59375 66.617188 156.660156 C 66.617188 156.703125 66.574219 156.753906 66.515625 156.753906 Z M 66.515625 156.753906 "/><path style=" stroke:none;fill-rule:nonzero;fill:#c47249;fill-opacity:1;" d="M 135.4375 179.390625 C 137.34375 187 130.71875 190.15625 116.40625 184.816406 C 109.644531 182.296875 104.765625 181.410156 103.175781 179.976562 L 104.050781 172.128906 C 105.242188 172.488281 112.707031 172.671875 119.417969 173.550781 L 113.617188 160.722656 C 115.199219 160.59375 121.285156 159.164062 126.574219 154.257812 C 131.4375 164.871094 133.796875 172.863281 135.4375 179.390625 Z M 135.4375 179.390625 "/><path style=" stroke:none;fill-rule:nonzero;fill:#ffffff;fill-opacity:1;" d="M 114.808594 136.351562 C 114.808594 136.351562 119.210938 138.550781 123.09375 145.144531 C 126.609375 151.121094 130.148438 158.503906 129.417969 159.347656 C 124.941406 164.605469 114.605469 165.222656 114.605469 165.222656 L 109.910156 156.378906 Z M 114.808594 136.351562 "/><path style=" stroke:none;fill-rule:nonzero;fill:#641b26;fill-opacity:1;" d="M 132.484375 177.652344 C 132.449219 177.652344 132.414062 177.636719 132.398438 177.609375 C 129.300781 173.332031 119.511719 173.644531 119.417969 173.652344 C 119.359375 173.652344 119.316406 173.609375 119.308594 173.550781 C 119.308594 173.492188 119.351562 173.441406 119.410156 173.441406 C 119.433594 173.441406 121.929688 173.359375 124.78125 173.800781 C 127.429688 174.21875 130.917969 175.199219 132.574219 177.484375 C 132.609375 177.535156 132.601562 177.601562 132.550781 177.636719 C 132.53125 177.644531 132.507812 177.652344 132.484375 177.652344 Z M 132.484375 177.652344 "/><path style=" stroke:none;fill-rule:nonzero;fill:#c47249;fill-opacity:1;" d="M 94.261719 180.40625 C 95.140625 179.828125 96.210938 179.601562 99.851562 180.128906 C 102.042969 180.445312 105.550781 179.644531 106.503906 179.433594 L 106.152344 172.679688 C 104.738281 172.3125 102.4375 170.796875 100.722656 169.984375 C 98.570312 168.972656 96.210938 167.242188 94.402344 167.859375 C 91.332031 168.898438 87.683594 170.714844 88.132812 171.859375 C 88.601562 173.007812 92.21875 171.875 92.21875 171.875 C 92.21875 171.875 90.359375 172.898438 90.59375 174.136719 C 90.828125 175.375 92.460938 175.785156 92.460938 175.785156 C 91.582031 177.074219 93.164062 178.269531 93.164062 178.269531 C 92.445312 179.433594 93.558594 180.855469 94.261719 180.40625 Z M 94.261719 180.40625 "/><path style=" stroke:none;fill-rule:nonzero;fill:#641b26;fill-opacity:1;" d="M 93.171875 178.378906 C 93.140625 178.378906 93.113281 178.363281 93.089844 178.335938 C 93.054688 178.296875 93.054688 178.230469 93.105469 178.1875 C 93.164062 178.144531 94.476562 177.058594 96.546875 176.933594 C 96.546875 176.933594 96.546875 176.933594 96.554688 176.933594 C 96.613281 176.933594 96.652344 176.972656 96.664062 177.03125 C 96.664062 177.089844 96.621094 177.140625 96.5625 177.140625 C 94.570312 177.265625 93.257812 178.335938 93.246094 178.347656 C 93.222656 178.371094 93.199219 178.378906 93.171875 178.378906 Z M 93.171875 178.378906 "/><path style=" stroke:none;fill-rule:nonzero;fill:#641b26;fill-opacity:1;" d="M 92.46875 175.894531 C 92.4375 175.894531 92.410156 175.886719 92.394531 175.859375 C 92.351562 175.820312 92.359375 175.75 92.402344 175.710938 C 92.46875 175.652344 94.117188 174.210938 96.070312 173.894531 C 96.128906 173.878906 96.175781 173.917969 96.195312 173.976562 C 96.203125 174.035156 96.160156 174.085938 96.109375 174.101562 C 94.21875 174.414062 92.5625 175.859375 92.546875 175.867188 C 92.519531 175.886719 92.496094 175.894531 92.46875 175.894531 Z M 92.46875 175.894531 "/><path style=" stroke:none;fill-rule:nonzero;fill:#641b26;fill-opacity:1;" d="M 92.226562 171.984375 C 92.195312 171.984375 92.152344 171.96875 92.136719 171.933594 C 92.109375 171.886719 92.125 171.816406 92.175781 171.792969 C 92.195312 171.785156 93.890625 170.839844 95.925781 170.839844 C 95.992188 170.839844 96.070312 170.871094 96.058594 170.949219 C 96.058594 171.007812 96.011719 171.058594 95.953125 171.058594 C 95.941406 171.058594 95.925781 171.058594 95.917969 171.058594 C 93.941406 171.058594 92.292969 171.96875 92.277344 171.976562 C 92.261719 171.976562 92.242188 171.984375 92.226562 171.984375 Z M 92.226562 171.984375 "/><path style=" stroke:none;fill-rule:nonzero;fill:#641b26;fill-opacity:1;" d="M 100.832031 181.109375 L 71.371094 181.109375 L 71.371094 178.714844 L 98.730469 178.714844 C 99.886719 178.714844 100.820312 179.652344 100.820312 180.808594 L 100.820312 181.109375 Z M 100.832031 181.109375 "/><path style=" stroke:none;fill-rule:nonzero;fill:#641b26;fill-opacity:1;" d="M 40.796875 181.109375 L 90.101562 181.109375 L 85.136719 149.273438 L 35.835938 149.273438 Z M 40.796875 181.109375 "/><path style=" stroke:none;fill-rule:nonzero;fill:#ffffff;fill-opacity:1;" d="M 65.621094 165.835938 C 65.707031 166.324219 65.707031 166.808594 65.617188 167.292969 C 65.53125 167.773438 65.355469 168.214844 65.101562 168.621094 C 64.847656 169.023438 64.53125 169.355469 64.148438 169.617188 C 63.765625 169.882812 63.351562 170.054688 62.902344 170.136719 C 62.453125 170.21875 62 170.207031 61.550781 170.09375 C 61.101562 169.984375 60.6875 169.785156 60.304688 169.5 C 59.925781 169.210938 59.605469 168.859375 59.351562 168.4375 C 59.097656 168.019531 58.925781 167.566406 58.835938 167.078125 C 58.746094 166.589844 58.746094 166.105469 58.835938 165.621094 C 58.925781 165.140625 59.097656 164.699219 59.351562 164.292969 C 59.609375 163.890625 59.925781 163.558594 60.308594 163.296875 C 60.6875 163.03125 61.105469 162.859375 61.554688 162.777344 C 62.003906 162.695312 62.453125 162.710938 62.902344 162.820312 C 63.351562 162.929688 63.769531 163.128906 64.148438 163.414062 C 64.53125 163.703125 64.847656 164.054688 65.101562 164.476562 C 65.359375 164.894531 65.53125 165.347656 65.621094 165.835938 Z M 65.621094 165.835938 "/><path style=" stroke:none;fill-rule:nonzero;fill:#c47249;fill-opacity:1;" d="M 49.316406 181.082031 C 49.316406 181.082031 49.726562 180.890625 49.535156 179.039062 C 49.34375 177.199219 49.914062 175.390625 51.6875 175.59375 C 51.6875 175.59375 53.203125 173.761719 54.785156 175.574219 C 54.785156 175.574219 56.617188 174.746094 57.820312 176.269531 C 57.820312 176.269531 59.335938 175.425781 60.097656 176.546875 C 60.859375 177.667969 61.234375 180.914062 60.105469 181.71875 C 58.96875 182.523438 56.0625 182.964844 53.402344 182.925781 C 50.742188 182.882812 49.316406 181.082031 49.316406 181.082031 Z M 49.316406 181.082031 "/><path style=" stroke:none;fill-rule:nonzero;fill:#641b26;fill-opacity:1;" d="M 51.6875 180.707031 C 51.667969 180.707031 51.652344 180.699219 51.636719 180.691406 C 51.585938 180.65625 51.570312 180.597656 51.59375 180.546875 C 52.648438 178.738281 51.59375 175.652344 51.585938 175.625 C 51.570312 175.566406 51.59375 175.507812 51.652344 175.492188 C 51.710938 175.476562 51.769531 175.5 51.785156 175.558594 C 51.828125 175.691406 52.882812 178.773438 51.785156 180.65625 C 51.761719 180.691406 51.71875 180.707031 51.6875 180.707031 Z M 51.6875 180.707031 "/><path style=" stroke:none;fill-rule:nonzero;fill:#641b26;fill-opacity:1;" d="M 54.785156 180.867188 C 54.765625 180.867188 54.757812 180.867188 54.742188 180.855469 C 54.691406 180.832031 54.667969 180.773438 54.683594 180.714844 C 55.601562 178.605469 54.683594 175.632812 54.675781 175.601562 C 54.65625 175.542969 54.691406 175.484375 54.742188 175.46875 C 54.800781 175.449219 54.859375 175.484375 54.875 175.535156 C 54.917969 175.660156 55.828125 178.621094 54.875 180.796875 C 54.867188 180.839844 54.824219 180.867188 54.785156 180.867188 Z M 54.785156 180.867188 "/><path style=" stroke:none;fill-rule:nonzero;fill:#641b26;fill-opacity:1;" d="M 57.445312 181.140625 C 57.429688 181.140625 57.402344 181.132812 57.386719 181.125 C 57.335938 181.089844 57.328125 181.023438 57.351562 180.984375 C 58.457031 179.300781 57.722656 176.320312 57.710938 176.296875 C 57.695312 176.238281 57.730469 176.179688 57.789062 176.171875 C 57.847656 176.152344 57.90625 176.1875 57.914062 176.246094 C 57.945312 176.371094 58.683594 179.34375 57.527344 181.101562 C 57.511719 181.125 57.476562 181.140625 57.445312 181.140625 Z M 57.445312 181.140625 "/><path style=" stroke:none;fill-rule:nonzero;fill:#641b26;fill-opacity:1;" d="M 297.613281 246.875 L 148.558594 246.875 C 145.765625 246.875 143.914062 244.445312 144.433594 241.449219 L 169.84375 93.015625 C 170.304688 90.328125 172.847656 87.941406 175.535156 87.667969 L 318.019531 73.371094 C 321.226562 73.054688 323.558594 75.152344 323.214844 78.082031 L 304.417969 240.890625 C 304.035156 244.195312 300.980469 246.875 297.613281 246.875 Z M 297.613281 246.875 "/><path style=" stroke:none;fill-rule:nonzero;fill:#ffffff;fill-opacity:1;" d="M 293.671875 242.941406 L 144.617188 242.941406 C 141.824219 242.941406 139.972656 240.511719 140.492188 237.515625 L 165.902344 89.082031 C 166.359375 86.394531 168.90625 84.007812 171.59375 83.734375 L 314.078125 69.4375 C 317.28125 69.121094 319.617188 71.21875 319.273438 74.148438 L 300.476562 236.957031 C 300.101562 240.261719 297.046875 242.941406 293.671875 242.941406 Z M 293.671875 242.941406 "/><path style=" stroke:none;fill-rule:nonzero;fill:#000000;fill-opacity:1;" d="M 292.285156 234.679688 L 147.875 235.382812 L 169.894531 104.875 L 309.089844 92.746094 Z M 292.285156 234.679688 "/><path style=" stroke:none;fill-rule:nonzero;fill:#ffffff;fill-opacity:1;" d="M 177.066406 93.339844 C 176.855469 94.597656 175.667969 95.699219 174.414062 95.816406 C 173.15625 95.933594 172.320312 95.015625 172.53125 93.765625 C 172.738281 92.519531 173.917969 91.414062 175.175781 91.289062 C 176.421875 91.171875 177.265625 92.085938 177.066406 93.339844 Z M 177.066406 93.339844 "/><path style=" stroke:none;fill-rule:nonzero;fill:#ffffff;fill-opacity:1;" d="M 192.949219 91.84375 C 192.75 93.105469 191.542969 94.226562 190.261719 94.34375 C 188.984375 94.460938 188.121094 93.53125 188.320312 92.277344 C 188.523438 91.023438 189.726562 89.902344 191 89.773438 C 192.28125 89.65625 193.152344 90.578125 192.949219 91.84375 Z M 192.949219 91.84375 "/><path style=" stroke:none;fill-rule:nonzero;fill:#ffffff;fill-opacity:1;" d="M 184.964844 92.59375 C 184.757812 93.851562 183.566406 94.972656 182.296875 95.089844 C 181.03125 95.207031 180.179688 94.285156 180.386719 93.03125 C 180.597656 91.773438 181.785156 90.664062 183.050781 90.546875 C 184.3125 90.417969 185.175781 91.339844 184.964844 92.59375 Z M 184.964844 92.59375 "/><path style=" stroke:none;fill-rule:nonzero;fill:#ffffff;fill-opacity:1;" d="M 267.125 208.84375 L 176.480469 210.675781 L 178.816406 196.082031 L 269.101562 193.425781 Z M 267.125 208.84375 "/><path style=" stroke:none;fill-rule:nonzero;fill:#ffffff;fill-opacity:1;" d="M 211.789062 198.171875 L 211.160156 204.125 L 213.429688 204.125 L 213.261719 205.730469 L 208.96875 205.730469 L 209.765625 198.171875 Z M 211.789062 198.171875 "/><path style=" stroke:none;fill-rule:nonzero;fill:#ffffff;fill-opacity:1;" d="M 217.539062 205.804688 C 215.472656 205.804688 213.964844 204.199219 214.199219 201.921875 C 214.441406 199.644531 216.285156 198.054688 218.351562 198.054688 C 220.425781 198.054688 221.914062 199.652344 221.679688 201.921875 C 221.4375 204.199219 219.605469 205.804688 217.539062 205.804688 Z M 217.746094 203.855469 C 218.792969 203.855469 219.503906 203.09375 219.621094 201.929688 C 219.75 200.742188 219.195312 199.988281 218.148438 199.988281 C 217.09375 199.988281 216.390625 200.742188 216.265625 201.929688 C 216.148438 203.09375 216.683594 203.855469 217.746094 203.855469 Z M 217.746094 203.855469 "/><path style=" stroke:none;fill-rule:nonzero;fill:#ffffff;fill-opacity:1;" d="M 229.566406 200.660156 L 227.382812 200.660156 C 227.195312 200.265625 226.804688 200.039062 226.242188 200.039062 C 225.222656 200.039062 224.519531 200.777344 224.402344 201.9375 C 224.269531 203.234375 224.835938 203.929688 226.035156 203.929688 C 226.738281 203.929688 227.289062 203.585938 227.65625 202.933594 L 225.625 202.933594 L 225.78125 201.421875 L 229.566406 201.421875 L 229.347656 203.453125 C 228.796875 204.558594 227.539062 205.78125 225.640625 205.78125 C 223.40625 205.78125 222.101562 204.191406 222.34375 201.929688 C 222.578125 199.679688 224.199219 198.089844 226.433594 198.089844 C 228.285156 198.097656 229.441406 199.085938 229.566406 200.660156 Z M 229.566406 200.660156 "/><path style=" stroke:none;fill-rule:nonzero;fill:#ffffff;fill-opacity:1;" d="M 230.820312 198.171875 L 232.847656 198.171875 L 232.050781 205.730469 L 230.027344 205.730469 Z M 230.820312 198.171875 "/><path style=" stroke:none;fill-rule:nonzero;fill:#ffffff;fill-opacity:1;" d="M 240.761719 198.171875 L 239.96875 205.730469 L 237.941406 205.730469 L 235.683594 201.503906 L 235.238281 205.730469 L 233.214844 205.730469 L 234.007812 198.171875 L 236.035156 198.171875 L 238.285156 202.449219 L 238.738281 198.171875 Z M 240.761719 198.171875 "/><path style=" stroke:none;fill-rule:nonzero;fill:#ffffff;fill-opacity:1;" d="M 249.910156 126.089844 C 248.628906 135.503906 239.707031 143.65625 230.085938 144.234375 C 220.570312 144.800781 214.058594 137.738281 215.421875 128.507812 C 216.777344 119.34375 225.429688 111.351562 234.855469 110.589844 C 244.386719 109.828125 251.175781 116.742188 249.910156 126.089844 Z M 249.910156 126.089844 "/><path style=" stroke:none;fill-rule:nonzero;fill:#641b26;fill-opacity:1;" d="M 229.003906 144.578125 C 224.734375 144.578125 220.996094 143.046875 218.382812 140.191406 C 215.605469 137.160156 214.441406 132.992188 215.113281 128.464844 C 216.484375 119.210938 225.320312 111.058594 234.820312 110.296875 C 239.625 109.910156 243.851562 111.394531 246.773438 114.472656 C 249.601562 117.460938 250.816406 121.59375 250.203125 126.132812 C 248.90625 135.695312 239.882812 143.949219 230.09375 144.542969 C 229.734375 144.558594 229.363281 144.578125 229.003906 144.578125 Z M 236.292969 110.839844 C 235.824219 110.839844 235.355469 110.855469 234.871094 110.898438 C 225.640625 111.644531 217.035156 119.5625 215.707031 128.558594 C 215.0625 132.902344 216.175781 136.886719 218.828125 139.789062 C 221.53125 142.742188 225.53125 144.214844 230.058594 143.941406 C 239.574219 143.371094 248.347656 135.34375 249.601562 126.054688 C 250.1875 121.710938 249.03125 117.746094 246.328125 114.890625 C 243.84375 112.253906 240.3125 110.839844 236.292969 110.839844 Z M 236.292969 110.839844 "/><path style=" stroke:none;fill-rule:nonzero;fill:#641b26;fill-opacity:1;" d="M 238.738281 122.683594 C 238.304688 125.722656 235.414062 128.375 232.292969 128.582031 C 229.1875 128.800781 227.039062 126.515625 227.480469 123.496094 C 227.925781 120.480469 230.789062 117.855469 233.882812 117.621094 C 236.988281 117.386719 239.171875 119.652344 238.738281 122.683594 Z M 238.738281 122.683594 "/><path style=" stroke:none;fill-rule:nonzero;fill:#641b26;fill-opacity:1;" d="M 240.394531 136.476562 L 221.839844 137.671875 L 222.527344 133.019531 C 222.753906 131.496094 224.183594 130.179688 225.730469 130.074219 L 238.585938 129.1875 C 240.160156 129.078125 241.265625 130.230469 241.046875 131.773438 Z M 240.394531 136.476562 "/><path style=" stroke:none;fill-rule:nonzero;fill:#ffffff;fill-opacity:1;" d="M 270.046875 180.546875 L 181.417969 183.828125 L 183.34375 171.75 L 271.6875 167.816406 Z M 270.046875 180.546875 "/><path style=" stroke:none;fill-rule:nonzero;fill:#641b26;fill-opacity:1;" d="M 214.375 176.210938 L 213.582031 177.433594 L 211.78125 177.433594 L 213.605469 174.914062 L 212.222656 172.578125 L 214.066406 172.578125 L 214.777344 173.800781 L 215.582031 172.578125 L 217.378906 172.578125 L 215.523438 175.058594 L 216.929688 177.441406 L 215.085938 177.441406 Z M 214.375 176.210938 "/><path style=" stroke:none;fill-rule:nonzero;fill:#641b26;fill-opacity:1;" d="M 219.621094 176.210938 L 218.828125 177.433594 L 217.027344 177.433594 L 218.851562 174.914062 L 217.472656 172.578125 L 219.3125 172.578125 L 220.023438 173.800781 L 220.828125 172.578125 L 222.628906 172.578125 L 220.769531 175.058594 L 222.175781 177.441406 L 220.335938 177.441406 Z M 219.621094 176.210938 "/><path style=" stroke:none;fill-rule:nonzero;fill:#641b26;fill-opacity:1;" d="M 224.871094 176.210938 L 224.074219 177.433594 L 222.277344 177.433594 L 224.101562 174.914062 L 222.71875 172.578125 L 224.5625 172.578125 L 225.273438 173.800781 L 226.074219 172.578125 L 227.875 172.578125 L 226.015625 175.058594 L 227.421875 177.441406 L 225.582031 177.441406 Z M 224.871094 176.210938 "/><path style=" stroke:none;fill-rule:nonzero;fill:#641b26;fill-opacity:1;" d="M 230.117188 176.210938 L 229.324219 177.433594 L 227.523438 177.433594 L 229.347656 174.914062 L 227.964844 172.578125 L 229.808594 172.578125 L 230.519531 173.800781 L 231.324219 172.578125 L 233.121094 172.578125 L 231.265625 175.058594 L 232.671875 177.441406 L 230.828125 177.441406 Z M 230.117188 176.210938 "/><path style=" stroke:none;fill-rule:nonzero;fill:#641b26;fill-opacity:1;" d="M 235.363281 176.210938 L 234.570312 177.433594 L 232.769531 177.433594 L 234.59375 174.914062 L 233.214844 172.578125 L 235.054688 172.578125 L 235.765625 173.800781 L 236.570312 172.578125 L 238.371094 172.578125 L 236.511719 175.058594 L 237.917969 177.441406 L 236.078125 177.441406 Z M 235.363281 176.210938 "/><path style=" stroke:none;fill-rule:nonzero;fill:#641b26;fill-opacity:1;" d="M 240.613281 176.210938 L 239.816406 177.433594 L 238.019531 177.433594 L 239.84375 174.914062 L 238.460938 172.578125 L 240.304688 172.578125 L 241.015625 173.800781 L 241.816406 172.578125 L 243.617188 172.578125 L 241.757812 175.058594 L 243.164062 177.441406 L 241.324219 177.441406 Z M 240.613281 176.210938 "/><path style=" stroke:none;fill-rule:nonzero;fill:#ffffff;fill-opacity:1;" d="M 272.457031 161.773438 L 184.261719 166.019531 L 186.171875 154.101562 L 274.074219 149.222656 Z M 272.457031 161.773438 "/><path style=" stroke:none;fill-rule:nonzero;fill:#000000;fill-opacity:1;" d="M 249.691406 157.566406 L 206.75 159.765625 L 207.011719 158.085938 L 249.925781 155.839844 Z M 249.691406 157.566406 "/><path style=" stroke:none;fill-rule:nonzero;fill:#641b26;fill-opacity:1;" d="M 316.210938 219.660156 C 316.847656 220.316406 317.449219 221.003906 318.015625 221.722656 C 318.582031 222.4375 319.113281 223.1875 319.601562 223.960938 C 320.09375 224.734375 320.542969 225.535156 320.949219 226.355469 C 321.359375 227.179688 321.726562 228.023438 322.050781 228.886719 C 322.375 229.75 322.652344 230.628906 322.890625 231.523438 C 323.125 232.421875 323.316406 233.328125 323.460938 234.246094 C 323.605469 235.167969 323.703125 236.09375 323.757812 237.027344 C 323.8125 237.960938 323.816406 238.898438 323.777344 239.839844 C 323.738281 240.777344 323.652344 241.71875 323.523438 242.652344 C 323.390625 243.589844 323.214844 244.519531 322.992188 245.445312 C 322.769531 246.371094 322.503906 247.285156 322.195312 248.1875 C 321.882812 249.089844 321.53125 249.980469 321.132812 250.851562 C 320.738281 251.726562 320.300781 252.578125 319.824219 253.414062 C 319.34375 254.25 318.828125 255.0625 318.273438 255.851562 C 317.71875 256.640625 317.128906 257.402344 316.5 258.136719 C 315.875 258.871094 315.214844 259.574219 314.519531 260.25 C 313.828125 260.921875 313.105469 261.5625 312.351562 262.167969 C 311.601562 262.777344 310.824219 263.34375 310.019531 263.878906 C 309.214844 264.410156 308.390625 264.90625 307.542969 265.359375 C 306.691406 265.8125 305.828125 266.226562 304.941406 266.597656 C 304.058594 266.96875 303.160156 267.300781 302.25 267.585938 C 301.335938 267.871094 300.417969 268.109375 299.488281 268.304688 C 298.554688 268.503906 297.621094 268.652344 296.679688 268.757812 C 295.742188 268.863281 294.800781 268.921875 293.859375 268.933594 C 292.917969 268.949219 291.984375 268.914062 291.050781 268.835938 C 290.117188 268.753906 289.195312 268.628906 288.28125 268.460938 C 287.363281 268.289062 286.460938 268.074219 285.574219 267.8125 C 284.683594 267.550781 283.8125 267.25 282.960938 266.902344 C 282.105469 266.554688 281.273438 266.164062 280.460938 265.730469 C 279.648438 265.300781 278.863281 264.828125 278.105469 264.316406 C 277.34375 263.804688 276.613281 263.257812 275.910156 262.671875 C 275.207031 262.082031 274.539062 261.460938 273.898438 260.808594 C 273.261719 260.152344 272.660156 259.464844 272.09375 258.746094 C 271.527344 258.027344 271 257.28125 270.507812 256.507812 C 270.019531 255.734375 269.570312 254.933594 269.160156 254.109375 C 268.75 253.289062 268.386719 252.445312 268.0625 251.582031 C 267.738281 250.71875 267.457031 249.839844 267.222656 248.941406 C 266.988281 248.046875 266.796875 247.140625 266.652344 246.21875 C 266.507812 245.300781 266.40625 244.375 266.355469 243.441406 C 266.300781 242.503906 266.292969 241.566406 266.332031 240.628906 C 266.371094 239.6875 266.457031 238.75 266.589844 237.8125 C 266.71875 236.875 266.894531 235.945312 267.117188 235.019531 C 267.339844 234.097656 267.605469 233.183594 267.917969 232.28125 C 268.226562 231.375 268.582031 230.488281 268.976562 229.613281 C 269.371094 228.742188 269.808594 227.886719 270.289062 227.050781 C 270.765625 226.21875 271.28125 225.40625 271.835938 224.617188 C 272.394531 223.828125 272.984375 223.066406 273.609375 222.332031 C 274.238281 221.597656 274.898438 220.890625 275.589844 220.21875 C 276.285156 219.542969 277.007812 218.902344 277.757812 218.296875 C 278.511719 217.691406 279.289062 217.121094 280.09375 216.589844 C 280.894531 216.054688 281.722656 215.5625 282.570312 215.109375 C 283.417969 214.652344 284.285156 214.238281 285.167969 213.867188 C 286.050781 213.496094 286.949219 213.167969 287.863281 212.882812 C 288.773438 212.597656 289.695312 212.355469 290.625 212.160156 C 291.554688 211.964844 292.488281 211.816406 293.429688 211.710938 C 294.371094 211.605469 295.308594 211.546875 296.25 211.53125 C 297.191406 211.519531 298.128906 211.554688 299.058594 211.632812 C 299.992188 211.710938 300.917969 211.835938 301.832031 212.007812 C 302.746094 212.179688 303.648438 212.394531 304.539062 212.652344 C 305.425781 212.914062 306.296875 213.21875 307.152344 213.566406 C 308.007812 213.914062 308.839844 214.304688 309.648438 214.734375 C 310.460938 215.167969 311.246094 215.640625 312.007812 216.152344 C 312.765625 216.660156 313.5 217.210938 314.203125 217.796875 C 314.902344 218.382812 315.574219 219.003906 316.210938 219.660156 Z M 316.210938 219.660156 "/><path style=" stroke:none;fill-rule:nonzero;fill:#ffffff;fill-opacity:1;" d="M 312.386719 217.507812 C 313.023438 218.164062 313.625 218.851562 314.191406 219.570312 C 314.757812 220.289062 315.285156 221.035156 315.777344 221.808594 C 316.265625 222.582031 316.714844 223.382812 317.125 224.203125 C 317.535156 225.027344 317.898438 225.871094 318.222656 226.734375 C 318.546875 227.597656 318.828125 228.476562 319.0625 229.371094 C 319.296875 230.269531 319.488281 231.175781 319.632812 232.09375 C 319.777344 233.015625 319.878906 233.941406 319.929688 234.875 C 319.984375 235.808594 319.992188 236.746094 319.953125 237.6875 C 319.914062 238.628906 319.828125 239.566406 319.695312 240.503906 C 319.566406 241.4375 319.390625 242.371094 319.167969 243.292969 C 318.945312 244.21875 318.679688 245.132812 318.367188 246.035156 C 318.058594 246.9375 317.703125 247.828125 317.308594 248.699219 C 316.914062 249.574219 316.476562 250.429688 315.996094 251.261719 C 315.519531 252.097656 315.003906 252.910156 314.449219 253.699219 C 313.894531 254.488281 313.300781 255.25 312.675781 255.984375 C 312.046875 256.71875 311.386719 257.421875 310.695312 258.097656 C 310 258.769531 309.28125 259.410156 308.527344 260.015625 C 307.773438 260.625 306.996094 261.195312 306.195312 261.726562 C 305.390625 262.257812 304.5625 262.753906 303.714844 263.207031 C 302.867188 263.664062 302 264.074219 301.117188 264.445312 C 300.234375 264.820312 299.335938 265.148438 298.421875 265.433594 C 297.511719 265.71875 296.589844 265.957031 295.660156 266.152344 C 294.730469 266.351562 293.796875 266.5 292.855469 266.605469 C 291.914062 266.710938 290.976562 266.769531 290.035156 266.78125 C 289.09375 266.796875 288.15625 266.761719 287.226562 266.683594 C 286.292969 266.605469 285.367188 266.480469 284.453125 266.308594 C 283.539062 266.136719 282.636719 265.921875 281.746094 265.660156 C 280.859375 265.402344 279.988281 265.097656 279.132812 264.75 C 278.28125 264.402344 277.445312 264.011719 276.636719 263.578125 C 275.824219 263.148438 275.039062 262.675781 274.277344 262.164062 C 273.519531 261.652344 272.785156 261.105469 272.085938 260.519531 C 271.382812 259.933594 270.710938 259.3125 270.074219 258.65625 C 269.4375 258 268.835938 257.3125 268.269531 256.59375 C 267.703125 255.875 267.171875 255.128906 266.683594 254.355469 C 266.191406 253.582031 265.742188 252.78125 265.335938 251.960938 C 264.925781 251.136719 264.558594 250.292969 264.234375 249.429688 C 263.910156 248.566406 263.632812 247.6875 263.398438 246.789062 C 263.160156 245.894531 262.96875 244.988281 262.824219 244.066406 C 262.679688 243.148438 262.582031 242.222656 262.527344 241.289062 C 262.476562 240.351562 262.46875 239.417969 262.507812 238.476562 C 262.546875 237.535156 262.632812 236.597656 262.761719 235.660156 C 262.894531 234.722656 263.070312 233.792969 263.292969 232.871094 C 263.515625 231.945312 263.78125 231.03125 264.089844 230.128906 C 264.402344 229.226562 264.753906 228.335938 265.152344 227.464844 C 265.546875 226.589844 265.984375 225.734375 266.460938 224.898438 C 266.941406 224.066406 267.457031 223.253906 268.011719 222.464844 C 268.566406 221.675781 269.15625 220.914062 269.785156 220.179688 C 270.410156 219.445312 271.070312 218.738281 271.765625 218.066406 C 272.457031 217.390625 273.179688 216.753906 273.933594 216.144531 C 274.683594 215.539062 275.460938 214.96875 276.265625 214.4375 C 277.070312 213.902344 277.894531 213.410156 278.742188 212.957031 C 279.59375 212.5 280.457031 212.089844 281.34375 211.714844 C 282.226562 211.34375 283.125 211.015625 284.035156 210.730469 C 284.949219 210.445312 285.867188 210.207031 286.796875 210.007812 C 287.730469 209.8125 288.664062 209.664062 289.605469 209.558594 C 290.542969 209.453125 291.484375 209.394531 292.425781 209.382812 C 293.367188 209.367188 294.300781 209.402344 295.234375 209.480469 C 296.167969 209.558594 297.089844 209.683594 298.003906 209.855469 C 298.921875 210.027344 299.824219 210.242188 300.710938 210.503906 C 301.601562 210.761719 302.472656 211.066406 303.324219 211.414062 C 304.179688 211.761719 305.011719 212.152344 305.824219 212.582031 C 306.636719 213.015625 307.421875 213.488281 308.179688 214 C 308.941406 214.511719 309.671875 215.058594 310.375 215.644531 C 311.078125 216.230469 311.746094 216.851562 312.386719 217.507812 Z M 312.386719 217.507812 "/><path style=" stroke:none;fill-rule:nonzero;fill:#641b26;fill-opacity:1;" d="M 289.621094 267.261719 C 281.832031 267.261719 274.667969 264.230469 269.460938 258.714844 C 264.238281 253.191406 261.601562 245.851562 262.039062 238.042969 C 262.933594 221.964844 276.742188 208.886719 292.820312 208.886719 C 300.613281 208.886719 307.773438 211.914062 312.980469 217.429688 C 318.203125 222.953125 320.839844 230.292969 320.40625 238.101562 C 319.507812 254.179688 305.699219 267.261719 289.621094 267.261719 Z M 292.820312 209.847656 C 277.246094 209.847656 263.863281 222.519531 263 238.101562 C 262.582031 245.644531 265.125 252.730469 270.164062 258.054688 C 275.195312 263.367188 282.105469 266.296875 289.632812 266.296875 C 305.207031 266.296875 318.589844 253.628906 319.449219 238.050781 C 319.867188 230.511719 317.324219 223.421875 312.285156 218.101562 C 307.257812 212.777344 300.34375 209.847656 292.820312 209.847656 Z M 292.820312 209.847656 "/><path style=" stroke:none;fill-rule:nonzero;fill:#ffffff;fill-opacity:1;" d="M 277.144531 232.644531 L 276.808594 231.949219 L 292 224.074219 L 292.175781 224.175781 L 306.3125 231.949219 L 305.902344 232.644531 L 291.949219 224.980469 Z M 277.144531 232.644531 "/><path style=" stroke:none;fill-rule:nonzero;fill:#ffffff;fill-opacity:1;" d="M 302.269531 232.292969 L 301.171875 252.046875 L 304.585938 252.046875 L 305.683594 232.292969 Z M 305.140625 234.152344 L 304.242188 250.210938 L 303.773438 250.210938 L 304.671875 234.152344 Z M 304.109375 234.152344 L 303.214844 250.210938 L 302.746094 250.210938 L 303.640625 234.152344 Z M 303.082031 234.152344 L 302.183594 250.210938 L 301.714844 250.210938 L 302.613281 234.152344 Z M 303.082031 234.152344 "/><path style=" stroke:none;fill-rule:nonzero;fill:#ffffff;fill-opacity:1;" d="M 306.050781 233.273438 L 301.800781 233.273438 L 301.859375 232.292969 L 306.101562 232.292969 Z M 306.050781 233.273438 "/><path style=" stroke:none;fill-rule:nonzero;fill:#ffffff;fill-opacity:1;" d="M 305.003906 252.070312 L 300.753906 252.070312 L 300.8125 251.097656 L 305.054688 251.097656 Z M 305.003906 252.070312 "/><path style=" stroke:none;fill-rule:nonzero;fill:#ffffff;fill-opacity:1;" d="M 296.738281 232.292969 L 295.640625 252.046875 L 299.054688 252.046875 L 300.152344 232.292969 Z M 299.617188 234.152344 L 298.71875 250.210938 L 298.25 250.210938 L 299.148438 234.152344 Z M 298.578125 234.152344 L 297.683594 250.210938 L 297.214844 250.210938 L 298.109375 234.152344 Z M 297.546875 234.152344 L 296.652344 250.210938 L 296.183594 250.210938 L 297.078125 234.152344 Z M 297.546875 234.152344 "/><path style=" stroke:none;fill-rule:nonzero;fill:#ffffff;fill-opacity:1;" d="M 300.519531 233.273438 L 296.269531 233.273438 L 296.328125 232.292969 L 300.570312 232.292969 Z M 300.519531 233.273438 "/><path style=" stroke:none;fill-rule:nonzero;fill:#ffffff;fill-opacity:1;" d="M 299.472656 252.070312 L 295.222656 252.070312 L 295.28125 251.097656 L 299.523438 251.097656 Z M 299.472656 252.070312 "/><path style=" stroke:none;fill-rule:nonzero;fill:#ffffff;fill-opacity:1;" d="M 283.695312 232.292969 L 282.601562 252.046875 L 286.015625 252.046875 L 287.113281 232.292969 Z M 286.566406 234.152344 L 285.671875 250.210938 L 285.203125 250.210938 L 286.097656 234.152344 Z M 285.539062 234.152344 L 284.644531 250.210938 L 284.175781 250.210938 L 285.070312 234.152344 Z M 284.507812 234.152344 L 283.613281 250.210938 L 283.144531 250.210938 L 284.039062 234.152344 Z M 284.507812 234.152344 "/><path style=" stroke:none;fill-rule:nonzero;fill:#ffffff;fill-opacity:1;" d="M 287.472656 233.273438 L 283.230469 233.273438 L 283.277344 232.292969 L 287.53125 232.292969 Z M 287.472656 233.273438 "/><path style=" stroke:none;fill-rule:nonzero;fill:#ffffff;fill-opacity:1;" d="M 286.425781 252.070312 L 282.183594 252.070312 L 282.234375 251.097656 L 286.484375 251.097656 Z M 286.425781 252.070312 "/><path style=" stroke:none;fill-rule:nonzero;fill:#ffffff;fill-opacity:1;" d="M 278.164062 232.292969 L 277.070312 252.046875 L 280.484375 252.046875 L 281.578125 232.292969 Z M 280.007812 234.152344 L 279.109375 250.210938 L 278.640625 250.210938 L 279.539062 234.152344 Z M 278.976562 234.152344 L 278.082031 250.210938 L 277.613281 250.210938 L 278.507812 234.152344 Z M 278.976562 234.152344 "/><path style=" stroke:none;fill-rule:nonzero;fill:#ffffff;fill-opacity:1;" d="M 281.941406 233.273438 L 277.695312 233.273438 L 277.746094 232.292969 L 282 232.292969 Z M 281.941406 233.273438 "/><path style=" stroke:none;fill-rule:nonzero;fill:#ffffff;fill-opacity:1;" d="M 280.894531 252.070312 L 276.648438 252.070312 L 276.699219 251.097656 L 280.953125 251.097656 Z M 280.894531 252.070312 "/><path style=" stroke:none;fill-rule:nonzero;fill:#ffffff;fill-opacity:1;" d="M 293.683594 242.5625 L 293.164062 251.910156 C 293.164062 251.988281 293.097656 252.046875 293.019531 252.046875 L 292.527344 252.046875 C 292.585938 252.046875 292.636719 251.996094 292.636719 251.9375 L 293.15625 242.621094 C 293.214844 241.515625 292.367188 240.621094 291.261719 240.621094 C 290.160156 240.621094 289.210938 241.515625 289.144531 242.621094 L 288.625 251.9375 C 288.625 251.996094 288.667969 252.046875 288.726562 252.046875 L 288.234375 252.046875 C 288.15625 252.046875 288.109375 251.988281 288.109375 251.910156 L 288.625 242.5625 C 288.703125 241.171875 289.898438 240.042969 291.289062 240.042969 C 292.675781 240.042969 293.757812 241.171875 293.683594 242.5625 Z M 293.683594 242.5625 "/><path style=" stroke:none;fill-rule:nonzero;fill:#ffffff;fill-opacity:1;" d="M 291.648438 233.734375 C 290.257812 233.734375 289.0625 234.863281 288.988281 236.253906 L 288.902344 237.777344 C 288.902344 237.851562 288.953125 237.910156 289.027344 237.910156 L 293.808594 237.910156 C 293.882812 237.910156 293.941406 237.851562 293.949219 237.777344 L 294.03125 236.253906 C 294.109375 234.863281 293.039062 233.734375 291.648438 233.734375 Z M 291.648438 233.734375 "/><path style=" stroke:none;fill-rule:nonzero;fill:#ffffff;fill-opacity:1;" d="M 296.351562 239.273438 L 286.726562 239.273438 L 286.742188 238.890625 L 296.375 238.890625 Z M 296.351562 239.273438 "/><path style=" stroke:none;fill-rule:nonzero;fill:#ffffff;fill-opacity:1;" d="M 306.261719 232.746094 L 276.765625 232.746094 C 276.535156 232.746094 276.359375 232.5625 276.375 232.328125 L 276.375 232.300781 C 276.390625 232.066406 276.582031 231.882812 276.816406 231.882812 L 306.3125 231.882812 C 306.546875 231.882812 306.722656 232.066406 306.703125 232.300781 L 306.703125 232.328125 C 306.6875 232.5625 306.496094 232.746094 306.261719 232.746094 Z M 306.261719 232.746094 "/><path style=" stroke:none;fill-rule:nonzero;fill:#ffffff;fill-opacity:1;" d="M 291.605469 230.300781 C 291.105469 230.253906 290.742188 229.96875 290.761719 229.472656 L 291.4375 229.480469 C 291.445312 229.640625 291.515625 229.742188 291.640625 229.785156 L 291.679688 229.171875 C 291.289062 229.0625 290.792969 228.9375 290.835938 228.328125 C 290.871094 227.839844 291.28125 227.558594 291.789062 227.53125 L 291.808594 227.214844 L 292.050781 227.214844 L 292.03125 227.53125 C 292.542969 227.582031 292.851562 227.859375 292.851562 228.34375 L 292.167969 228.335938 C 292.160156 228.191406 292.101562 228.101562 291.992188 228.058594 L 291.949219 228.660156 C 292.34375 228.777344 292.84375 228.894531 292.8125 229.5 C 292.785156 229.917969 292.433594 230.285156 291.839844 230.300781 L 291.824219 230.621094 L 291.582031 230.621094 Z M 291.714844 228.578125 L 291.75 228.042969 C 291.605469 228.066406 291.515625 228.152344 291.503906 228.300781 C 291.503906 228.4375 291.589844 228.519531 291.714844 228.578125 Z M 291.914062 229.246094 L 291.882812 229.800781 C 292.03125 229.773438 292.132812 229.675781 292.140625 229.523438 C 292.148438 229.382812 292.058594 229.304688 291.914062 229.246094 Z M 291.914062 229.246094 "/><path style=" stroke:none;fill-rule:nonzero;fill:#641b26;fill-opacity:1;" d="M 165.742188 63.144531 C 165.742188 63.144531 156.257812 70.871094 138.273438 70.382812 L 138.273438 100.613281 C 138.273438 100.613281 150.550781 129.058594 165.757812 129.058594 C 180.964844 129.058594 193.210938 100.613281 193.210938 100.613281 L 193.210938 70.382812 C 175.222656 70.871094 165.742188 63.144531 165.742188 63.144531 Z M 165.742188 63.144531 "/><path style=" stroke:none;fill-rule:nonzero;fill:#ffffff;fill-opacity:1;" d="M 190.671875 72.960938 L 190.671875 100.027344 C 189.8125 101.902344 186.992188 107.785156 182.949219 113.570312 C 178.757812 119.5625 172.371094 126.699219 165.75 126.699219 L 165.734375 126.699219 C 159.121094 126.691406 152.726562 119.550781 148.535156 113.558594 C 144.484375 107.785156 141.65625 101.902344 140.800781 100.019531 L 140.800781 72.953125 C 153.605469 72.609375 162.042969 68.46875 165.734375 66.199219 C 169.433594 68.476562 177.867188 72.617188 190.671875 72.960938 Z M 190.671875 72.960938 "/><g mask="url(#eb9524d944)" transform="matrix(1,0,0,1,165,65)"><g clip-path="url(#ef61f51468)"><g clip-rule="nonzero" clip-path="url(#049e1fb991)"><path style=" stroke:none;fill-rule:nonzero;fill:#641b26;fill-opacity:1;" d="M 25.671875 7.960938 L 25.671875 35.027344 C 24.8125 36.902344 21.992188 42.785156 17.949219 48.570312 C 13.757812 54.5625 7.371094 61.699219 0.75 61.699219 L 0.734375 61.699219 L 0.734375 1.199219 C 4.433594 3.476562 12.867188 7.617188 25.671875 7.960938 Z M 25.671875 7.960938 "/></g></g><mask id="eb9524d944"><g filter="url(#1bce692e1e)"><rect x="0" width="375" y="0" height="374.999991" style="fill:#000000;fill-opacity:0.2;stroke:none;"/></g></mask></g><path style=" stroke:none;fill-rule:nonzero;fill:#ffffff;fill-opacity:1;" d="M 157.449219 102.921875 L 152.996094 93.054688 C 152.542969 92.058594 152.988281 90.886719 153.984375 90.445312 C 154.980469 90 156.152344 90.4375 156.59375 91.433594 L 159.289062 97.417969 L 178.511719 86.9375 C 179.46875 86.410156 180.671875 86.769531 181.191406 87.726562 C 181.710938 88.6875 181.359375 89.882812 180.40625 90.402344 Z M 157.449219 102.921875 "/><g clip-rule="nonzero" clip-path="url(#c5f0b1d54c)"><path style=" stroke:none;fill-rule:nonzero;fill:#641b26;fill-opacity:1;" d="M 15.5 334.054688 L 345.511719 334.054688 L 345.511719 337.335938 L 15.5 337.335938 Z M 15.5 334.054688 "/></g><path style=" stroke:none;fill-rule:nonzero;fill:#ffffff;fill-opacity:1;" d="M 202.601562 286.996094 L 202.601562 296.132812 C 202.601562 296.960938 201.921875 297.632812 201.085938 297.632812 L 155.28125 297.632812 C 154.453125 297.632812 153.773438 296.953125 153.773438 296.132812 L 153.773438 286.996094 C 153.773438 286.167969 154.453125 285.496094 155.28125 285.496094 L 201.085938 285.496094 C 201.921875 285.496094 202.601562 286.175781 202.601562 286.996094 Z M 202.601562 286.996094 "/><path style=" stroke:none;fill-rule:nonzero;fill:#641b26;fill-opacity:1;" d="M 202.601562 295.324219 L 202.601562 296.132812 C 202.601562 296.960938 201.921875 297.632812 201.085938 297.632812 L 155.28125 297.632812 C 154.453125 297.632812 153.773438 296.953125 153.773438 296.132812 L 153.773438 295.324219 Z M 202.601562 295.324219 "/><path style=" stroke:none;fill-rule:nonzero;fill:#641b26;fill-opacity:1;" d="M 158.988281 294.285156 C 158.8125 294.285156 158.679688 294.140625 158.679688 293.976562 L 158.679688 288.617188 C 158.679688 288.441406 158.820312 288.308594 158.988281 288.308594 C 159.15625 288.308594 159.296875 288.453125 159.296875 288.617188 L 159.296875 293.976562 C 159.304688 294.140625 159.164062 294.285156 158.988281 294.285156 Z M 158.988281 294.285156 "/><path style=" stroke:none;fill-rule:nonzero;fill:#641b26;fill-opacity:1;" d="M 165.390625 294.285156 C 165.214844 294.285156 165.082031 294.140625 165.082031 293.976562 L 165.082031 288.617188 C 165.082031 288.441406 165.222656 288.308594 165.390625 288.308594 C 165.558594 288.308594 165.699219 288.453125 165.699219 288.617188 L 165.699219 293.976562 C 165.699219 294.140625 165.566406 294.285156 165.390625 294.285156 Z M 165.390625 294.285156 "/><path style=" stroke:none;fill-rule:nonzero;fill:#641b26;fill-opacity:1;" d="M 171.792969 294.285156 C 171.617188 294.285156 171.484375 294.140625 171.484375 293.976562 L 171.484375 288.617188 C 171.484375 288.441406 171.625 288.308594 171.792969 288.308594 C 171.960938 288.308594 172.101562 288.453125 172.101562 288.617188 L 172.101562 293.976562 C 172.101562 294.140625 171.960938 294.285156 171.792969 294.285156 Z M 171.792969 294.285156 "/><path style=" stroke:none;fill-rule:nonzero;fill:#641b26;fill-opacity:1;" d="M 178.1875 294.285156 C 178.011719 294.285156 177.878906 294.140625 177.878906 293.976562 L 177.878906 288.617188 C 177.878906 288.441406 178.019531 288.308594 178.1875 288.308594 C 178.355469 288.308594 178.496094 288.453125 178.496094 288.617188 L 178.496094 293.976562 C 178.503906 294.140625 178.363281 294.285156 178.1875 294.285156 Z M 178.1875 294.285156 "/><path style=" stroke:none;fill-rule:nonzero;fill:#641b26;fill-opacity:1;" d="M 184.589844 294.285156 C 184.414062 294.285156 184.28125 294.140625 184.28125 293.976562 L 184.28125 288.617188 C 184.28125 288.441406 184.421875 288.308594 184.589844 288.308594 C 184.757812 288.308594 184.898438 288.453125 184.898438 288.617188 L 184.898438 293.976562 C 184.898438 294.140625 184.765625 294.285156 184.589844 294.285156 Z M 184.589844 294.285156 "/><path style=" stroke:none;fill-rule:nonzero;fill:#641b26;fill-opacity:1;" d="M 190.992188 294.285156 C 190.816406 294.285156 190.683594 294.140625 190.683594 293.976562 L 190.683594 288.617188 C 190.683594 288.441406 190.824219 288.308594 190.992188 288.308594 C 191.160156 288.308594 191.300781 288.453125 191.300781 288.617188 L 191.300781 293.976562 C 191.300781 294.140625 191.160156 294.285156 190.992188 294.285156 Z M 190.992188 294.285156 "/><path style=" stroke:none;fill-rule:nonzero;fill:#641b26;fill-opacity:1;" d="M 197.386719 294.285156 C 197.210938 294.285156 197.074219 294.140625 197.074219 293.976562 L 197.074219 288.617188 C 197.074219 288.441406 197.21875 288.308594 197.386719 288.308594 C 197.554688 288.308594 197.695312 288.453125 197.695312 288.617188 L 197.695312 293.976562 C 197.703125 294.140625 197.5625 294.285156 197.386719 294.285156 Z M 197.386719 294.285156 "/><path style=" stroke:none;fill-rule:nonzero;fill:#ffffff;fill-opacity:1;" d="M 196.75 299.140625 L 196.75 308.277344 C 196.75 309.105469 196.070312 309.777344 195.234375 309.777344 L 149.429688 309.777344 C 148.601562 309.777344 147.925781 309.097656 147.925781 308.277344 L 147.925781 299.140625 C 147.925781 298.308594 148.601562 297.640625 149.429688 297.640625 L 195.234375 297.640625 C 196.082031 297.640625 196.75 298.308594 196.75 299.140625 Z M 196.75 299.140625 "/><path style=" stroke:none;fill-rule:nonzero;fill:#641b26;fill-opacity:1;" d="M 196.75 307.464844 L 196.75 308.277344 C 196.75 309.105469 196.070312 309.777344 195.234375 309.777344 L 149.429688 309.777344 C 148.601562 309.777344 147.925781 309.097656 147.925781 308.277344 L 147.925781 307.464844 Z M 196.75 307.464844 "/><path style=" stroke:none;fill-rule:nonzero;fill:#641b26;fill-opacity:1;" d="M 153.144531 306.429688 C 152.96875 306.429688 152.835938 306.285156 152.835938 306.117188 L 152.835938 300.761719 C 152.835938 300.585938 152.980469 300.453125 153.144531 300.453125 C 153.3125 300.453125 153.457031 300.59375 153.457031 300.761719 L 153.457031 306.117188 C 153.457031 306.285156 153.3125 306.429688 153.144531 306.429688 Z M 153.144531 306.429688 "/><path style=" stroke:none;fill-rule:nonzero;fill:#641b26;fill-opacity:1;" d="M 159.546875 306.429688 C 159.371094 306.429688 159.238281 306.285156 159.238281 306.117188 L 159.238281 300.761719 C 159.238281 300.585938 159.382812 300.453125 159.546875 300.453125 C 159.714844 300.453125 159.859375 300.59375 159.859375 300.761719 L 159.859375 306.117188 C 159.859375 306.285156 159.714844 306.429688 159.546875 306.429688 Z M 159.546875 306.429688 "/><path style=" stroke:none;fill-rule:nonzero;fill:#641b26;fill-opacity:1;" d="M 165.941406 306.429688 C 165.765625 306.429688 165.632812 306.285156 165.632812 306.117188 L 165.632812 300.761719 C 165.632812 300.585938 165.773438 300.453125 165.941406 300.453125 C 166.109375 300.453125 166.253906 300.59375 166.253906 300.761719 L 166.253906 306.117188 C 166.261719 306.285156 166.117188 306.429688 165.941406 306.429688 Z M 165.941406 306.429688 "/><path style=" stroke:none;fill-rule:nonzero;fill:#641b26;fill-opacity:1;" d="M 172.34375 306.429688 C 172.167969 306.429688 172.035156 306.285156 172.035156 306.117188 L 172.035156 300.761719 C 172.035156 300.585938 172.179688 300.453125 172.34375 300.453125 C 172.511719 300.453125 172.65625 300.59375 172.65625 300.761719 L 172.65625 306.117188 C 172.65625 306.285156 172.519531 306.429688 172.34375 306.429688 Z M 172.34375 306.429688 "/><path style=" stroke:none;fill-rule:nonzero;fill:#641b26;fill-opacity:1;" d="M 178.746094 306.429688 C 178.570312 306.429688 178.4375 306.285156 178.4375 306.117188 L 178.4375 300.761719 C 178.4375 300.585938 178.582031 300.453125 178.746094 300.453125 C 178.914062 300.453125 179.058594 300.59375 179.058594 300.761719 L 179.058594 306.117188 C 179.058594 306.285156 178.914062 306.429688 178.746094 306.429688 Z M 178.746094 306.429688 "/><path style=" stroke:none;fill-rule:nonzero;fill:#641b26;fill-opacity:1;" d="M 185.140625 306.429688 C 184.964844 306.429688 184.832031 306.285156 184.832031 306.117188 L 184.832031 300.761719 C 184.832031 300.585938 184.972656 300.453125 185.140625 300.453125 C 185.308594 300.453125 185.453125 300.59375 185.453125 300.761719 L 185.453125 306.117188 C 185.460938 306.285156 185.316406 306.429688 185.140625 306.429688 Z M 185.140625 306.429688 "/><path style=" stroke:none;fill-rule:nonzero;fill:#641b26;fill-opacity:1;" d="M 191.542969 306.429688 C 191.367188 306.429688 191.234375 306.285156 191.234375 306.117188 L 191.234375 300.761719 C 191.234375 300.585938 191.375 300.453125 191.542969 300.453125 C 191.710938 300.453125 191.855469 300.59375 191.855469 300.761719 L 191.855469 306.117188 C 191.855469 306.285156 191.71875 306.429688 191.542969 306.429688 Z M 191.542969 306.429688 "/><path style=" stroke:none;fill-rule:nonzero;fill:#ffffff;fill-opacity:1;" d="M 200.832031 311.28125 L 200.832031 320.421875 C 200.832031 321.25 200.15625 321.917969 199.320312 321.917969 L 153.515625 321.917969 C 152.6875 321.917969 152.007812 321.242188 152.007812 320.421875 L 152.007812 311.28125 C 152.007812 310.453125 152.6875 309.785156 153.515625 309.785156 L 199.320312 309.785156 C 200.15625 309.777344 200.832031 310.453125 200.832031 311.28125 Z M 200.832031 311.28125 "/><path style=" stroke:none;fill-rule:nonzero;fill:#641b26;fill-opacity:1;" d="M 200.832031 319.609375 L 200.832031 320.421875 C 200.832031 321.25 200.15625 321.917969 199.320312 321.917969 L 153.515625 321.917969 C 152.6875 321.917969 152.007812 321.242188 152.007812 320.421875 L 152.007812 319.609375 Z M 200.832031 319.609375 "/><path style=" stroke:none;fill-rule:nonzero;fill:#641b26;fill-opacity:1;" d="M 157.222656 318.5625 C 157.046875 318.5625 156.914062 318.421875 156.914062 318.253906 L 156.914062 312.898438 C 156.914062 312.722656 157.054688 312.589844 157.222656 312.589844 C 157.390625 312.589844 157.53125 312.730469 157.53125 312.898438 L 157.53125 318.253906 C 157.539062 318.429688 157.398438 318.5625 157.222656 318.5625 Z M 157.222656 318.5625 "/><path style=" stroke:none;fill-rule:nonzero;fill:#641b26;fill-opacity:1;" d="M 163.625 318.5625 C 163.449219 318.5625 163.316406 318.421875 163.316406 318.253906 L 163.316406 312.898438 C 163.316406 312.722656 163.457031 312.589844 163.625 312.589844 C 163.792969 312.589844 163.933594 312.730469 163.933594 312.898438 L 163.933594 318.253906 C 163.941406 318.429688 163.800781 318.5625 163.625 318.5625 Z M 163.625 318.5625 "/><path style=" stroke:none;fill-rule:nonzero;fill:#641b26;fill-opacity:1;" d="M 170.027344 318.5625 C 169.851562 318.5625 169.71875 318.421875 169.71875 318.253906 L 169.71875 312.898438 C 169.71875 312.722656 169.859375 312.589844 170.027344 312.589844 C 170.195312 312.589844 170.335938 312.730469 170.335938 312.898438 L 170.335938 318.253906 C 170.335938 318.429688 170.195312 318.5625 170.027344 318.5625 Z M 170.027344 318.5625 "/><path style=" stroke:none;fill-rule:nonzero;fill:#641b26;fill-opacity:1;" d="M 176.421875 318.5625 C 176.246094 318.5625 176.109375 318.421875 176.109375 318.253906 L 176.109375 312.898438 C 176.109375 312.722656 176.253906 312.589844 176.421875 312.589844 C 176.589844 312.589844 176.730469 312.730469 176.730469 312.898438 L 176.730469 318.253906 C 176.738281 318.429688 176.597656 318.5625 176.421875 318.5625 Z M 176.421875 318.5625 "/><path style=" stroke:none;fill-rule:nonzero;fill:#641b26;fill-opacity:1;" d="M 182.824219 318.5625 C 182.648438 318.5625 182.515625 318.421875 182.515625 318.253906 L 182.515625 312.898438 C 182.515625 312.722656 182.65625 312.589844 182.824219 312.589844 C 182.992188 312.589844 183.132812 312.730469 183.132812 312.898438 L 183.132812 318.253906 C 183.140625 318.429688 183 318.5625 182.824219 318.5625 Z M 182.824219 318.5625 "/><path style=" stroke:none;fill-rule:nonzero;fill:#641b26;fill-opacity:1;" d="M 189.226562 318.5625 C 189.050781 318.5625 188.917969 318.421875 188.917969 318.253906 L 188.917969 312.898438 C 188.917969 312.722656 189.058594 312.589844 189.226562 312.589844 C 189.394531 312.589844 189.535156 312.730469 189.535156 312.898438 L 189.535156 318.253906 C 189.535156 318.429688 189.394531 318.5625 189.226562 318.5625 Z M 189.226562 318.5625 "/><path style=" stroke:none;fill-rule:nonzero;fill:#641b26;fill-opacity:1;" d="M 195.628906 318.5625 C 195.453125 318.5625 195.320312 318.421875 195.320312 318.253906 L 195.320312 312.898438 C 195.320312 312.722656 195.460938 312.589844 195.628906 312.589844 C 195.796875 312.589844 195.9375 312.730469 195.9375 312.898438 L 195.9375 318.253906 C 195.9375 318.429688 195.796875 318.5625 195.628906 318.5625 Z M 195.628906 318.5625 "/><path style=" stroke:none;fill-rule:nonzero;fill:#ffffff;fill-opacity:1;" d="M 202.601562 323.425781 L 202.601562 332.566406 C 202.601562 333.394531 201.921875 334.0625 201.085938 334.0625 L 155.28125 334.0625 C 154.453125 334.0625 153.773438 333.386719 153.773438 332.566406 L 153.773438 323.425781 C 153.773438 322.597656 154.453125 321.929688 155.28125 321.929688 L 201.085938 321.929688 C 201.921875 321.917969 202.601562 322.597656 202.601562 323.425781 Z M 202.601562 323.425781 "/><path style=" stroke:none;fill-rule:nonzero;fill:#641b26;fill-opacity:1;" d="M 202.601562 331.746094 L 202.601562 332.558594 C 202.601562 333.386719 201.921875 334.054688 201.085938 334.054688 L 155.28125 334.054688 C 154.453125 334.054688 153.773438 333.378906 153.773438 332.558594 L 153.773438 331.746094 Z M 202.601562 331.746094 "/><path style=" stroke:none;fill-rule:nonzero;fill:#641b26;fill-opacity:1;" d="M 158.988281 330.707031 C 158.8125 330.707031 158.679688 330.566406 158.679688 330.398438 L 158.679688 325.042969 C 158.679688 324.867188 158.820312 324.730469 158.988281 324.730469 C 159.15625 324.730469 159.296875 324.875 159.296875 325.042969 L 159.296875 330.398438 C 159.304688 330.566406 159.164062 330.707031 158.988281 330.707031 Z M 158.988281 330.707031 "/><path style=" stroke:none;fill-rule:nonzero;fill:#641b26;fill-opacity:1;" d="M 165.390625 330.707031 C 165.214844 330.707031 165.082031 330.566406 165.082031 330.398438 L 165.082031 325.042969 C 165.082031 324.867188 165.222656 324.730469 165.390625 324.730469 C 165.558594 324.730469 165.699219 324.875 165.699219 325.042969 L 165.699219 330.398438 C 165.699219 330.566406 165.566406 330.707031 165.390625 330.707031 Z M 165.390625 330.707031 "/><path style=" stroke:none;fill-rule:nonzero;fill:#641b26;fill-opacity:1;" d="M 171.792969 330.707031 C 171.617188 330.707031 171.484375 330.566406 171.484375 330.398438 L 171.484375 325.042969 C 171.484375 324.867188 171.625 324.730469 171.792969 324.730469 C 171.960938 324.730469 172.101562 324.875 172.101562 325.042969 L 172.101562 330.398438 C 172.101562 330.566406 171.960938 330.707031 171.792969 330.707031 Z M 171.792969 330.707031 "/><path style=" stroke:none;fill-rule:nonzero;fill:#641b26;fill-opacity:1;" d="M 178.1875 330.707031 C 178.011719 330.707031 177.878906 330.566406 177.878906 330.398438 L 177.878906 325.042969 C 177.878906 324.867188 178.019531 324.730469 178.1875 324.730469 C 178.355469 324.730469 178.496094 324.875 178.496094 325.042969 L 178.496094 330.398438 C 178.503906 330.566406 178.363281 330.707031 178.1875 330.707031 Z M 178.1875 330.707031 "/><path style=" stroke:none;fill-rule:nonzero;fill:#641b26;fill-opacity:1;" d="M 184.589844 330.707031 C 184.414062 330.707031 184.28125 330.566406 184.28125 330.398438 L 184.28125 325.042969 C 184.28125 324.867188 184.421875 324.730469 184.589844 324.730469 C 184.757812 324.730469 184.898438 324.875 184.898438 325.042969 L 184.898438 330.398438 C 184.898438 330.566406 184.765625 330.707031 184.589844 330.707031 Z M 184.589844 330.707031 "/><path style=" stroke:none;fill-rule:nonzero;fill:#641b26;fill-opacity:1;" d="M 190.992188 330.707031 C 190.816406 330.707031 190.683594 330.566406 190.683594 330.398438 L 190.683594 325.042969 C 190.683594 324.867188 190.824219 324.730469 190.992188 324.730469 C 191.160156 324.730469 191.300781 324.875 191.300781 325.042969 L 191.300781 330.398438 C 191.300781 330.566406 191.160156 330.707031 190.992188 330.707031 Z M 190.992188 330.707031 "/><path style=" stroke:none;fill-rule:nonzero;fill:#641b26;fill-opacity:1;" d="M 197.386719 330.707031 C 197.210938 330.707031 197.074219 330.566406 197.074219 330.398438 L 197.074219 325.042969 C 197.074219 324.867188 197.21875 324.730469 197.386719 324.730469 C 197.554688 324.730469 197.695312 324.875 197.695312 325.042969 L 197.695312 330.398438 C 197.703125 330.566406 197.5625 330.707031 197.386719 330.707031 Z M 197.386719 330.707031 "/><path style=" stroke:none;fill-rule:nonzero;fill:#ffffff;fill-opacity:1;" d="M 210.125 299.140625 L 210.125 308.277344 C 210.125 309.105469 210.800781 309.777344 211.636719 309.777344 L 257.441406 309.777344 C 258.273438 309.777344 258.949219 309.097656 258.949219 308.277344 L 258.949219 299.140625 C 258.949219 298.308594 258.273438 297.640625 257.441406 297.640625 L 211.636719 297.640625 C 210.792969 297.640625 210.125 298.308594 210.125 299.140625 Z M 210.125 299.140625 "/><path style=" stroke:none;fill-rule:nonzero;fill:#641b26;fill-opacity:1;" d="M 210.125 307.464844 L 210.125 308.277344 C 210.125 309.105469 210.800781 309.777344 211.636719 309.777344 L 257.441406 309.777344 C 258.273438 309.777344 258.949219 309.097656 258.949219 308.277344 L 258.949219 307.464844 Z M 210.125 307.464844 "/><path style=" stroke:none;fill-rule:nonzero;fill:#641b26;fill-opacity:1;" d="M 253.726562 306.429688 C 253.550781 306.429688 253.417969 306.285156 253.417969 306.117188 L 253.417969 300.761719 C 253.417969 300.585938 253.558594 300.453125 253.726562 300.453125 C 253.894531 300.453125 254.035156 300.59375 254.035156 300.761719 L 254.035156 306.117188 C 254.046875 306.285156 253.902344 306.429688 253.726562 306.429688 Z M 253.726562 306.429688 "/><path style=" stroke:none;fill-rule:nonzero;fill:#641b26;fill-opacity:1;" d="M 247.332031 306.429688 C 247.15625 306.429688 247.023438 306.285156 247.023438 306.117188 L 247.023438 300.761719 C 247.023438 300.585938 247.164062 300.453125 247.332031 300.453125 C 247.5 300.453125 247.644531 300.59375 247.644531 300.761719 L 247.644531 306.117188 C 247.644531 306.285156 247.5 306.429688 247.332031 306.429688 Z M 247.332031 306.429688 "/><path style=" stroke:none;fill-rule:nonzero;fill:#641b26;fill-opacity:1;" d="M 240.929688 306.429688 C 240.753906 306.429688 240.621094 306.285156 240.621094 306.117188 L 240.621094 300.761719 C 240.621094 300.585938 240.761719 300.453125 240.929688 300.453125 C 241.097656 300.453125 241.242188 300.59375 241.242188 300.761719 L 241.242188 306.117188 C 241.242188 306.285156 241.097656 306.429688 240.929688 306.429688 Z M 240.929688 306.429688 "/><path style=" stroke:none;fill-rule:nonzero;fill:#641b26;fill-opacity:1;" d="M 234.527344 306.429688 C 234.351562 306.429688 234.21875 306.285156 234.21875 306.117188 L 234.21875 300.761719 C 234.21875 300.585938 234.359375 300.453125 234.527344 300.453125 C 234.695312 300.453125 234.835938 300.59375 234.835938 300.761719 L 234.835938 306.117188 C 234.839844 306.285156 234.703125 306.429688 234.527344 306.429688 Z M 234.527344 306.429688 "/><path style=" stroke:none;fill-rule:nonzero;fill:#641b26;fill-opacity:1;" d="M 228.125 306.429688 C 227.949219 306.429688 227.816406 306.285156 227.816406 306.117188 L 227.816406 300.761719 C 227.816406 300.585938 227.957031 300.453125 228.125 300.453125 C 228.292969 300.453125 228.433594 300.59375 228.433594 300.761719 L 228.433594 306.117188 C 228.445312 306.285156 228.300781 306.429688 228.125 306.429688 Z M 228.125 306.429688 "/><path style=" stroke:none;fill-rule:nonzero;fill:#641b26;fill-opacity:1;" d="M 221.730469 306.429688 C 221.554688 306.429688 221.421875 306.285156 221.421875 306.117188 L 221.421875 300.761719 C 221.421875 300.585938 221.5625 300.453125 221.730469 300.453125 C 221.898438 300.453125 222.042969 300.59375 222.042969 300.761719 L 222.042969 306.117188 C 222.042969 306.285156 221.898438 306.429688 221.730469 306.429688 Z M 221.730469 306.429688 "/><path style=" stroke:none;fill-rule:nonzero;fill:#641b26;fill-opacity:1;" d="M 215.328125 306.429688 C 215.152344 306.429688 215.019531 306.285156 215.019531 306.117188 L 215.019531 300.761719 C 215.019531 300.585938 215.160156 300.453125 215.328125 300.453125 C 215.496094 300.453125 215.640625 300.59375 215.640625 300.761719 L 215.640625 306.117188 C 215.640625 306.285156 215.503906 306.429688 215.328125 306.429688 Z M 215.328125 306.429688 "/><path style=" stroke:none;fill-rule:nonzero;fill:#ffffff;fill-opacity:1;" d="M 202.726562 311.28125 L 202.726562 320.421875 C 202.726562 321.25 203.402344 321.917969 204.238281 321.917969 L 250.042969 321.917969 C 250.875 321.917969 251.550781 321.242188 251.550781 320.421875 L 251.550781 311.28125 C 251.550781 310.453125 250.875 309.785156 250.042969 309.785156 L 204.238281 309.785156 C 203.402344 309.777344 202.726562 310.453125 202.726562 311.28125 Z M 202.726562 311.28125 "/><path style=" stroke:none;fill-rule:nonzero;fill:#641b26;fill-opacity:1;" d="M 202.726562 319.609375 L 202.726562 320.421875 C 202.726562 321.25 203.402344 321.917969 204.238281 321.917969 L 250.042969 321.917969 C 250.875 321.917969 251.550781 321.242188 251.550781 320.421875 L 251.550781 319.609375 Z M 202.726562 319.609375 "/><path style=" stroke:none;fill-rule:nonzero;fill:#641b26;fill-opacity:1;" d="M 246.335938 318.5625 C 246.160156 318.5625 246.027344 318.421875 246.027344 318.253906 L 246.027344 312.898438 C 246.027344 312.722656 246.167969 312.589844 246.335938 312.589844 C 246.503906 312.589844 246.648438 312.730469 246.648438 312.898438 L 246.648438 318.253906 C 246.648438 318.429688 246.511719 318.5625 246.335938 318.5625 Z M 246.335938 318.5625 "/><path style=" stroke:none;fill-rule:nonzero;fill:#641b26;fill-opacity:1;" d="M 239.933594 318.5625 C 239.757812 318.5625 239.625 318.421875 239.625 318.253906 L 239.625 312.898438 C 239.625 312.722656 239.765625 312.589844 239.933594 312.589844 C 240.101562 312.589844 240.246094 312.730469 240.246094 312.898438 L 240.246094 318.253906 C 240.253906 318.429688 240.109375 318.5625 239.933594 318.5625 Z M 239.933594 318.5625 "/><path style=" stroke:none;fill-rule:nonzero;fill:#641b26;fill-opacity:1;" d="M 233.539062 318.5625 C 233.363281 318.5625 233.230469 318.421875 233.230469 318.253906 L 233.230469 312.898438 C 233.230469 312.722656 233.375 312.589844 233.539062 312.589844 C 233.707031 312.589844 233.851562 312.730469 233.851562 312.898438 L 233.851562 318.253906 C 233.851562 318.429688 233.707031 318.5625 233.539062 318.5625 Z M 233.539062 318.5625 "/><path style=" stroke:none;fill-rule:nonzero;fill:#641b26;fill-opacity:1;" d="M 227.136719 318.5625 C 226.960938 318.5625 226.828125 318.421875 226.828125 318.253906 L 226.828125 312.898438 C 226.828125 312.722656 226.972656 312.589844 227.136719 312.589844 C 227.304688 312.589844 227.449219 312.730469 227.449219 312.898438 L 227.449219 318.253906 C 227.449219 318.429688 227.304688 318.5625 227.136719 318.5625 Z M 227.136719 318.5625 "/><path style=" stroke:none;fill-rule:nonzero;fill:#641b26;fill-opacity:1;" d="M 220.734375 318.5625 C 220.558594 318.5625 220.425781 318.421875 220.425781 318.253906 L 220.425781 312.898438 C 220.425781 312.722656 220.570312 312.589844 220.734375 312.589844 C 220.902344 312.589844 221.046875 312.730469 221.046875 312.898438 L 221.046875 318.253906 C 221.054688 318.429688 220.910156 318.5625 220.734375 318.5625 Z M 220.734375 318.5625 "/><path style=" stroke:none;fill-rule:nonzero;fill:#641b26;fill-opacity:1;" d="M 214.332031 318.5625 C 214.15625 318.5625 214.023438 318.421875 214.023438 318.253906 L 214.023438 312.898438 C 214.023438 312.722656 214.167969 312.589844 214.332031 312.589844 C 214.5 312.589844 214.644531 312.730469 214.644531 312.898438 L 214.644531 318.253906 C 214.652344 318.429688 214.507812 318.5625 214.332031 318.5625 Z M 214.332031 318.5625 "/><path style=" stroke:none;fill-rule:nonzero;fill:#641b26;fill-opacity:1;" d="M 207.9375 318.5625 C 207.761719 318.5625 207.628906 318.421875 207.628906 318.253906 L 207.628906 312.898438 C 207.628906 312.722656 207.773438 312.589844 207.9375 312.589844 C 208.105469 312.589844 208.25 312.730469 208.25 312.898438 L 208.25 318.253906 C 208.25 318.429688 208.105469 318.5625 207.9375 318.5625 Z M 207.9375 318.5625 "/><path style=" stroke:none;fill-rule:nonzero;fill:#ffffff;fill-opacity:1;" d="M 204.273438 323.425781 L 204.273438 332.566406 C 204.273438 333.394531 204.953125 334.0625 205.789062 334.0625 L 251.59375 334.0625 C 252.421875 334.0625 253.097656 333.386719 253.097656 332.566406 L 253.097656 323.425781 C 253.097656 322.597656 252.421875 321.929688 251.59375 321.929688 L 205.789062 321.929688 C 204.953125 321.917969 204.273438 322.597656 204.273438 323.425781 Z M 204.273438 323.425781 "/><path style=" stroke:none;fill-rule:nonzero;fill:#641b26;fill-opacity:1;" d="M 204.273438 331.746094 L 204.273438 332.558594 C 204.273438 333.386719 204.953125 334.054688 205.789062 334.054688 L 251.59375 334.054688 C 252.421875 334.054688 253.097656 333.378906 253.097656 332.558594 L 253.097656 331.746094 Z M 204.273438 331.746094 "/><path style=" stroke:none;fill-rule:nonzero;fill:#641b26;fill-opacity:1;" d="M 247.886719 330.707031 C 247.710938 330.707031 247.574219 330.566406 247.574219 330.398438 L 247.574219 325.042969 C 247.574219 324.867188 247.71875 324.730469 247.886719 324.730469 C 248.054688 324.730469 248.195312 324.875 248.195312 325.042969 L 248.195312 330.398438 C 248.195312 330.566406 248.054688 330.707031 247.886719 330.707031 Z M 247.886719 330.707031 "/><path style=" stroke:none;fill-rule:nonzero;fill:#641b26;fill-opacity:1;" d="M 241.484375 330.707031 C 241.308594 330.707031 241.171875 330.566406 241.171875 330.398438 L 241.171875 325.042969 C 241.171875 324.867188 241.316406 324.730469 241.484375 324.730469 C 241.652344 324.730469 241.792969 324.875 241.792969 325.042969 L 241.792969 330.398438 C 241.792969 330.566406 241.660156 330.707031 241.484375 330.707031 Z M 241.484375 330.707031 "/><path style=" stroke:none;fill-rule:nonzero;fill:#641b26;fill-opacity:1;" d="M 235.082031 330.707031 C 234.90625 330.707031 234.769531 330.566406 234.769531 330.398438 L 234.769531 325.042969 C 234.769531 324.867188 234.914062 324.730469 235.082031 324.730469 C 235.246094 324.730469 235.390625 324.875 235.390625 325.042969 L 235.390625 330.398438 C 235.398438 330.566406 235.257812 330.707031 235.082031 330.707031 Z M 235.082031 330.707031 "/><path style=" stroke:none;fill-rule:nonzero;fill:#641b26;fill-opacity:1;" d="M 228.6875 330.707031 C 228.511719 330.707031 228.375 330.566406 228.375 330.398438 L 228.375 325.042969 C 228.375 324.867188 228.519531 324.730469 228.6875 324.730469 C 228.855469 324.730469 228.996094 324.875 228.996094 325.042969 L 228.996094 330.398438 C 228.996094 330.566406 228.855469 330.707031 228.6875 330.707031 Z M 228.6875 330.707031 "/><path style=" stroke:none;fill-rule:nonzero;fill:#641b26;fill-opacity:1;" d="M 222.285156 330.707031 C 222.109375 330.707031 221.972656 330.566406 221.972656 330.398438 L 221.972656 325.042969 C 221.972656 324.867188 222.117188 324.730469 222.285156 324.730469 C 222.453125 324.730469 222.59375 324.875 222.59375 325.042969 L 222.59375 330.398438 C 222.59375 330.566406 222.453125 330.707031 222.285156 330.707031 Z M 222.285156 330.707031 "/><path style=" stroke:none;fill-rule:nonzero;fill:#641b26;fill-opacity:1;" d="M 215.882812 330.707031 C 215.707031 330.707031 215.570312 330.566406 215.570312 330.398438 L 215.570312 325.042969 C 215.570312 324.867188 215.714844 324.730469 215.882812 324.730469 C 216.050781 324.730469 216.191406 324.875 216.191406 325.042969 L 216.191406 330.398438 C 216.199219 330.566406 216.058594 330.707031 215.882812 330.707031 Z M 215.882812 330.707031 "/><path style=" stroke:none;fill-rule:nonzero;fill:#641b26;fill-opacity:1;" d="M 209.480469 330.707031 C 209.304688 330.707031 209.167969 330.566406 209.167969 330.398438 L 209.167969 325.042969 C 209.167969 324.867188 209.3125 324.730469 209.480469 324.730469 C 209.648438 324.730469 209.789062 324.875 209.789062 325.042969 L 209.789062 330.398438 C 209.796875 330.566406 209.65625 330.707031 209.480469 330.707031 Z M 209.480469 330.707031 "/><path style=" stroke:none;fill-rule:nonzero;fill:#ffffff;fill-opacity:1;" d="M 328.28125 144.234375 L 330.296875 146.25 L 321.125 155.421875 L 319.109375 153.40625 Z M 328.28125 144.234375 "/><path style=" stroke:none;fill-rule:nonzero;fill:#ffffff;fill-opacity:1;" d="M 330.304688 153.410156 L 328.289062 155.429688 L 319.117188 146.257812 L 321.132812 144.238281 Z M 330.304688 153.410156 "/><path style=" stroke:none;fill-rule:nonzero;fill:#000000;fill-opacity:1;" d="M 336.421875 104.421875 L 337.800781 105.800781 L 331.515625 112.085938 L 330.136719 110.707031 Z M 336.421875 104.421875 "/><path style=" stroke:none;fill-rule:nonzero;fill:#000000;fill-opacity:1;" d="M 337.804688 110.710938 L 336.425781 112.089844 L 330.140625 105.804688 L 331.519531 104.425781 Z M 337.804688 110.710938 "/></g></svg>